<svg width="54" height="69" viewBox="0 0 54 69" fill="none" xmlns="http://www.w3.org/2000/svg">
<path fill-rule="evenodd" clip-rule="evenodd" d="M0 6.9C0 5.07001 0.656454 3.31496 1.82495 2.02096C2.99345 0.726962 4.57827 0 6.23077 0L40.3214 0L54 15.1478V62.1C54 63.93 53.3435 65.685 52.1751 66.979C51.0066 68.273 49.4217 69 47.7692 69H6.23077C4.57827 69 2.99345 68.273 1.82495 66.979C0.656454 65.685 0 63.93 0 62.1V6.9ZM26.3437 18.5196C26.757 18.3669 27.2033 18.362 27.6192 18.5057C28.0352 18.6493 28.3998 18.9342 28.6615 19.32L29.9077 21.16C31.2619 23.1596 33.0179 24.7825 35.0367 25.9003C37.0554 27.0181 39.2814 27.6 41.5385 27.6V32.2C36.9405 32.1999 32.5039 30.3231 29.0769 26.9284V46C29.077 48.0252 28.4736 49.9939 27.3603 51.6007C26.247 53.2074 24.6861 54.3625 22.9196 54.8867C21.1531 55.4109 19.2798 55.275 17.5901 54.5C15.9005 53.725 14.489 52.3542 13.5746 50.6003C12.6602 48.8464 12.2939 46.8074 12.5326 44.7995C12.7713 42.7916 13.6016 40.927 14.8948 39.4949C16.1879 38.0628 17.8717 37.1433 19.6848 36.8789C21.498 36.6146 23.3393 37.0202 24.9231 38.0328V20.7C24.9234 20.2175 25.0608 19.7473 25.3157 19.356C25.5707 18.9647 25.9303 18.6721 26.3437 18.5196Z" fill="#F4D48E"/>
</svg>
