<svg width="309" height="176" viewBox="0 0 309 176" fill="none" xmlns="http://www.w3.org/2000/svg">
<g clip-path="url(#clip0_677_4421)">
<path d="M197.912 111.067C229.038 102.362 251.754 79.7265 265.383 62.4116C280.173 43.5491 287.616 26.5244 287.713 26.3309L289.066 26.8146C288.969 27.0081 281.429 44.1294 266.543 63.1855C252.817 80.7905 229.811 103.522 198.299 112.422L197.912 111.067Z" fill="#BDBAAC"/>
<path d="M286.941 19.9467C283.848 24.4931 283.074 29.6199 284.331 34.2629C289.261 33.3924 293.901 30.4904 296.994 26.0408C300.087 21.5912 300.86 16.3677 299.604 11.7246C294.674 12.5952 290.034 15.4971 286.941 19.9467Z" fill="#BDBAAC"/>
<path d="M288.874 37.6484C283.461 39.2929 279.304 42.8719 277.178 47.1281C281.624 49.3529 287.231 49.9333 292.644 48.2889C298.057 46.6444 302.214 43.0654 304.34 38.8092C299.894 36.5844 294.287 36.004 288.874 37.6484Z" fill="#BDBAAC"/>
<path d="M285.2 53.6092C279.593 52.7386 274.18 54.0929 270.217 56.9948C273.117 60.864 277.757 63.766 283.46 64.6365C289.066 65.5071 294.479 64.1529 298.443 61.251C295.543 57.3817 290.806 54.4798 285.2 53.6092Z" fill="#BDBAAC"/>
<path d="M273.502 68.6025C267.896 67.7319 262.483 69.0861 258.52 71.9881C261.419 75.8573 266.059 78.7593 271.762 79.6298C277.369 80.5004 282.782 79.1462 286.745 76.2443C283.845 72.375 279.109 69.4731 273.502 68.6025Z" fill="#BDBAAC"/>
<path d="M275.823 44.7098C275.823 39.8733 273.793 35.4236 270.603 32.3282C267.413 35.1334 265.383 39.3896 265.383 44.2262C265.383 49.0627 267.413 53.5124 270.603 56.6078C273.793 53.8026 275.823 49.5464 275.823 44.7098Z" fill="#BDBAAC"/>
<path d="M263.546 60.2836C263.643 55.4471 261.613 50.9007 258.52 47.8053C255.233 50.5138 253.203 54.7699 253.107 59.6065C253.01 64.443 255.04 68.9894 258.133 72.0848C261.42 69.3763 263.546 65.1202 263.546 60.2836Z" fill="#BDBAAC"/>
<path d="M254.171 83.886C252.044 82.822 249.724 82.7253 247.598 83.4024C248.081 85.4337 249.531 87.2716 251.561 88.3357C253.687 89.3997 256.007 89.4964 258.134 88.8193C257.651 86.788 256.297 84.9501 254.171 83.886Z" fill="#BDBAAC"/>
<path d="M161.912 159.606C161.912 159.606 181.341 39.4663 200.674 39.4663C218.364 39.4663 197.098 83.9626 199.224 93.5389C201.351 103.115 218.557 64.2294 236.053 46.1407C253.549 28.052 264.279 38.0153 254.129 59.9733C244.269 81.1574 208.697 106.017 216.624 108.145C224.55 110.273 269.305 80.7704 275.975 91.6043C284.191 104.953 215.367 128.556 222.327 131.167C229.19 133.779 262.055 121.301 262.055 131.941C262.055 142.582 216.72 145.193 217.88 149.836C219.813 157.285 261.572 141.614 263.795 151.965C266.115 162.508 211.887 159.896 213.337 168.215C214.11 172.955 265.729 166.958 267.565 173.439C271.818 188.335 155.436 196.267 155.436 196.267L161.912 159.606Z" fill="#F1E7E3"/>
<path d="M85.1612 180.79C85.1612 180.79 46.8824 147.128 41.8559 149.643C36.8294 152.158 3.19051 135.907 0.193936 144.71C-3.47928 155.544 47.3657 165.12 43.2092 167.925C38.956 170.73 13.5335 164.83 14.8868 172.665C16.3367 180.5 46.7858 176.921 46.5924 180.403C46.3024 186.111 16.5301 179.726 16.4334 187.562C16.3367 195.59 52.0056 187.078 52.1023 193.269C52.1989 196.848 30.353 197.331 29.9663 202.361C29.193 213.776 100.724 211.067 100.724 211.067L85.1612 180.79Z" fill="#DFDCCF"/>
<path d="M94.4415 151.578L92.9915 151.481C95.1181 117.141 81.1986 84.9299 69.1156 63.8426C56.066 41.014 42.3398 26.1174 42.1465 25.924L43.2098 24.9567C43.3064 25.1501 57.226 40.1434 70.3722 63.0687C82.5519 84.3495 96.5681 116.851 94.4415 151.578Z" fill="#BDBAAC"/>
<path d="M35.9584 23.9892C39.2449 29.0193 43.9814 32.1147 48.718 32.8885C49.4913 27.665 48.3313 21.8612 45.0447 16.8311C41.7582 11.8011 37.1183 8.70573 32.2852 7.93188C31.5118 13.1554 32.6718 18.9592 35.9584 23.9892Z" fill="#BDBAAC"/>
<path d="M53.4547 29.9867C53.2613 35.984 55.1946 41.5944 58.5778 45.5604C62.1544 42.2716 64.571 37.0481 64.861 31.0508C65.0543 25.0534 63.121 19.443 59.7378 15.4771C56.1612 18.7659 53.7446 23.8927 53.4547 29.9867Z" fill="#BDBAAC"/>
<path d="M49.6855 45.8506C44.7557 45.9473 40.5025 48.1721 37.6992 51.6544C40.8891 54.9433 45.3356 57.0714 50.2655 57.0714C55.1953 56.9747 59.4485 54.7498 62.2518 51.2675C59.0619 47.8819 54.6153 45.7538 49.6855 45.8506Z" fill="#BDBAAC"/>
<path d="M57.6113 59.1993C52.6814 59.2961 48.4282 61.5209 45.625 65.0032C48.7182 68.3888 53.2614 70.5169 58.0946 70.4201C63.0244 70.3234 67.2776 68.0986 70.0809 64.6163C66.9876 61.2307 62.5411 59.1026 57.6113 59.1993Z" fill="#BDBAAC"/>
<path d="M135.683 221C135.683 221 100.22 137.327 95.9157 118.306C91.6115 99.2849 109.016 111.278 109.016 111.278C109.016 111.278 89.0851 73.4239 96.7578 63.3981C104.431 53.3723 115.565 63.3044 115.565 63.3044C115.565 63.3044 115.846 21.5146 125.11 20.1092C142.326 17.4856 144.853 63.0233 144.853 63.0233C144.853 63.0233 147.099 43.3465 156.923 47.1882C171.708 52.9975 156.175 94.1314 156.175 94.1314C156.175 94.1314 173.86 91.5079 181.158 99.6597C193.977 114.277 135.683 221 135.683 221Z" fill="#F1E7E3"/>
<path d="M139.969 200.62C139.969 200.62 69.5013 188.819 54.2285 176.341C38.9557 163.862 54.0352 158.252 54.0352 158.252C54.0352 158.252 18.6563 140.067 19.043 127.782C19.4296 115.4 37.0224 121.688 37.0224 121.688C37.0224 121.688 7.25002 87.6383 14.3065 81.254C27.4527 69.2594 61.9616 104.566 61.9616 104.566C61.9616 104.566 51.7152 87.735 62.4449 85.1233C78.6844 81.1573 90.6707 122.558 90.6707 122.558C90.6707 122.558 87.5774 106.211 98.7904 108.339C118.993 112.208 139.969 200.62 139.969 200.62Z" fill="#D2C1B9"/>
<path d="M98.8873 108.339C87.6743 106.017 90.7675 122.558 90.7675 122.558C90.7675 122.558 78.6846 81.0607 62.4451 85.1234C51.7154 87.8318 61.8651 104.566 61.8651 104.566C61.8651 104.566 27.4529 69.1627 14.3066 81.2541L139.679 200.717C137.456 189.303 112.807 111.241 98.8873 108.339Z" fill="#D2C1B9"/>
<path d="M160.461 209.616C160.461 209.616 185.787 183.789 198.546 181.081C211.306 178.372 208.986 187.465 208.986 187.465C208.986 187.465 234.312 165.313 240.208 170.634C246.105 176.051 239.725 181.177 239.725 181.177C239.725 181.177 260.798 177.405 263.891 184.369C268.531 195.01 233.829 200.814 233.829 200.814C233.829 200.814 248.425 201.781 245.042 208.455C240.015 218.709 160.461 209.616 160.461 209.616Z" fill="#DFDCCF"/>
<path d="M263.988 184.466C260.991 177.502 239.822 181.274 239.822 181.274C239.822 181.274 246.202 176.051 240.305 170.73C234.409 165.313 209.856 184.563 209.856 184.563C209.856 184.563 215.656 173.439 202.896 176.147C190.137 178.856 160.461 209.616 160.461 209.616L263.988 184.466Z" fill="#D2C1B9"/>
</g>
<defs>
<clipPath id="clip0_677_4421">
<rect width="310" height="213.389" fill="white"/>
</clipPath>
</defs>
</svg>
