<svg width="55" height="70" viewBox="0 0 55 70" fill="none" xmlns="http://www.w3.org/2000/svg">
<path d="M53.4665 18.1789C53.9267 18.641 54.1875 19.2647 54.1875 19.9193V67.4107C54.1875 68.7738 53.0906 69.875 51.733 69.875H2.64205C1.28437 69.875 0.1875 68.7738 0.1875 67.4107V3.33929C0.1875 1.97623 1.28437 0.875 2.64205 0.875H35.2185C35.8705 0.875 36.4994 1.13683 36.9597 1.59888L53.4665 18.1789ZM48.5267 21.0513L34.0909 6.55826V21.0513H48.5267ZM36.4856 45.0211C35.3212 44.9826 34.0832 45.0727 32.6772 45.2491C30.8133 44.0947 29.5584 42.5091 28.6671 40.1796L28.7492 39.8423L28.8443 39.4434C29.1741 38.0472 29.3513 37.0284 29.4043 36.0011C29.4442 35.2256 29.4012 34.5102 29.2639 33.8471C29.0108 32.4155 28.0021 31.5785 26.7311 31.5269C25.546 31.4783 24.4568 32.1429 24.1784 33.1725C23.7251 34.8375 23.9905 37.0284 24.9516 40.7649C23.7274 43.695 22.1097 47.1304 21.0243 49.0464C19.5753 49.7965 18.447 50.4788 17.4989 51.235C16.2487 52.2338 15.4678 53.2603 15.253 54.3384C15.1487 54.8382 15.306 55.4913 15.6642 56.0265C16.0707 56.6333 16.6828 57.0276 17.4169 57.0846C19.2693 57.2286 21.5459 55.3111 24.0595 50.9809C24.3118 50.8961 24.5788 50.8068 24.9048 50.6959L25.8176 50.3863C26.3951 50.1907 26.814 50.0506 27.2282 49.9158C29.023 49.329 30.3807 48.9586 31.6157 48.7476C33.7618 49.9012 36.2425 50.6574 37.9131 50.6574C39.2922 50.6574 40.2242 49.9397 40.5609 48.81C40.8562 47.8181 40.6223 46.6676 39.9872 46.0315C39.3306 45.3839 38.1233 45.0743 36.4856 45.0211ZM17.4637 54.9106V54.8829L17.4736 54.8567C17.5859 54.5654 17.7299 54.2875 17.9032 54.0281C18.2315 53.5214 18.6833 52.9885 19.2432 52.4209C19.5439 52.1167 19.8568 51.8203 20.2243 51.4876C20.3063 51.4136 20.831 50.9447 20.9292 50.8522L21.786 50.0514L21.1631 51.0471C20.2181 52.5595 19.3636 53.6484 18.6319 54.3585C18.3626 54.6203 18.1256 54.8128 17.9339 54.9368C17.8706 54.9793 17.8036 55.0159 17.7337 55.0462C17.7022 55.0592 17.6746 55.067 17.647 55.0693C17.6178 55.073 17.5882 55.069 17.5611 55.0577C17.5322 55.0456 17.5076 55.0251 17.4902 54.999C17.4729 54.9728 17.4637 54.9421 17.4637 54.9106ZM27.1238 38.1011L26.9505 38.4092L26.8431 38.0719C26.6053 37.3149 26.4304 36.1744 26.3821 35.1455C26.3269 33.975 26.4197 33.2727 26.7879 33.2727C27.3049 33.2727 27.5419 34.1044 27.5603 35.3557C27.5772 36.4554 27.4046 37.5998 27.1231 38.1011H27.1238ZM26.6782 42.6031L26.7955 42.2912L26.9559 42.5838C27.8525 44.2195 29.0161 45.5841 30.2956 46.5351L30.5717 46.74L30.235 46.8093C28.9824 47.0696 27.8157 47.4608 26.2203 48.1069C26.3867 48.0391 24.5619 48.7892 24.1001 48.9671L23.6974 49.1219L23.9122 48.7461C24.8595 47.0904 25.7347 45.102 26.6774 42.6031H26.6782ZM38.7684 48.4758C38.1655 48.7145 36.8676 48.5012 34.5826 47.5216L34.0027 47.2736L34.6317 47.2274C36.4189 47.0942 37.6845 47.1928 38.4224 47.4639C38.7369 47.5794 38.9463 47.7249 39.0391 47.8913C39.088 47.97 39.1044 48.0647 39.0849 48.1554C39.0654 48.2461 39.0116 48.3256 38.9348 48.3772C38.886 48.4203 38.8295 48.4538 38.7684 48.4758Z" fill="#F4D48E"/>
</svg>
