<svg width="24" height="24" viewBox="0 0 24 24" fill="none" xmlns="http://www.w3.org/2000/svg">
<path d="M11 21.9498C9.73333 21.8165 8.554 21.4708 7.462 20.9128C6.37 20.3548 5.42 19.6298 4.612 18.7378C3.804 17.8458 3.16667 16.8248 2.7 15.6748C2.23333 14.5248 2 13.2998 2 11.9998C2 10.4831 2.30433 9.08314 2.913 7.7998C3.52167 6.51647 4.35067 5.41647 5.4 4.4998H3V2.4998H9V8.4998H7V5.7748C6.08333 6.50814 5.354 7.41247 4.812 8.4878C4.27 9.56314 3.99933 10.7338 4 11.9998C4 14.0498 4.671 15.8208 6.013 17.3128C7.355 18.8048 9.01733 19.6755 11 19.9248V21.9498ZM10.575 16.5998L6.35 12.3498L7.75 10.9498L10.575 13.7748L16.25 8.0998L17.65 9.5248L10.575 16.5998ZM15 21.4998V15.4998H17V18.2248C17.9167 17.4748 18.646 16.5665 19.188 15.4998C19.73 14.4331 20.0007 13.2665 20 11.9998C20 9.9498 19.329 8.1788 17.987 6.6868C16.645 5.1948 14.9827 4.32414 13 4.0748V2.0498C15.5333 2.2998 17.6667 3.36647 19.4 5.2498C21.1333 7.13314 22 9.38314 22 11.9998C22 13.5165 21.6957 14.9165 21.087 16.1998C20.4783 17.4831 19.6493 18.5831 18.6 19.4998H21V21.4998H15Z" fill="#1C5D95"/>
</svg>
