<svg width="77" height="57" viewBox="0 0 77 57" fill="none" xmlns="http://www.w3.org/2000/svg">
<path d="M51.3333 29.5148C51.3333 29.1405 51.213 28.8331 50.9724 28.5924L36.8557 14.4758C36.6151 14.2351 36.3076 14.1148 35.9333 14.1148C35.559 14.1148 35.2516 14.2351 35.0109 14.4758L20.9344 28.5523C20.667 28.8732 20.5333 29.194 20.5333 29.5148C20.5333 29.8891 20.6536 30.1966 20.8943 30.4372C21.1349 30.6779 21.4424 30.7982 21.8167 30.7982H30.8V44.9148C30.8 45.2624 30.927 45.5632 31.181 45.8172C31.435 46.0712 31.7358 46.1982 32.0833 46.1982H39.7833C40.1309 46.1982 40.4317 46.0712 40.6857 45.8172C40.9397 45.5632 41.0667 45.2624 41.0667 44.9148V30.7982H50.05C50.3976 30.7982 50.6983 30.6712 50.9523 30.4172C51.2063 30.1632 51.3333 29.8624 51.3333 29.5148ZM77 41.0648C77 45.3159 75.4961 48.9453 72.4883 51.9531C69.4805 54.9609 65.851 56.4648 61.6 56.4648H17.9667C13.0205 56.4648 8.7895 54.7069 5.2737 51.1911C1.7579 47.6753 0 43.4444 0 38.4982C0 35.0225 0.935764 31.8141 2.80729 28.8732C4.67882 25.9322 7.19201 23.7265 10.3469 22.256C10.2934 21.4539 10.2667 20.8791 10.2667 20.5315C10.2667 14.8634 12.2719 10.0242 16.2823 6.01379C20.2927 2.00338 25.1319 -0.00183105 30.8 -0.00183105C34.9708 -0.00183105 38.7874 1.16119 42.2497 3.48723C45.7121 5.81327 48.2319 8.90129 49.8094 12.7513C51.7076 11.0937 53.9267 10.2648 56.4667 10.2648C59.3007 10.2648 61.7203 11.2674 63.7255 13.2726C65.7307 15.2779 66.7333 17.6975 66.7333 20.5315C66.7333 22.5634 66.1852 24.4082 65.0891 26.0659C68.5648 26.8947 71.4188 28.7061 73.6513 31.5C75.8838 34.2939 77 37.4822 77 41.0648Z" fill="#F4D48E"/>
</svg>
