<svg width="26" height="26" viewBox="0 0 26 26" fill="none" xmlns="http://www.w3.org/2000/svg">
<g id="akar-icons:eye">
<g id="Group">
<path id="Vector" d="M22.3698 12.0984C22.8627 12.743 22.8627 13.6133 22.3698 14.2569C20.8175 16.2834 17.0931 20.4559 12.7449 20.4559C8.39666 20.4559 4.67229 16.2834 3.11995 14.2569C2.88016 13.9482 2.75 13.5685 2.75 13.1776C2.75 12.7868 2.88016 12.4071 3.11995 12.0984C4.67229 10.0719 8.39666 5.89941 12.7449 5.89941C17.0931 5.89941 20.8175 10.0719 22.3698 12.0984V12.0984Z" stroke="black" stroke-width="1.5" stroke-linecap="round" stroke-linejoin="round"/>
<path id="Vector_2" d="M12.7442 16.2971C14.4669 16.2971 15.8635 14.9005 15.8635 13.1778C15.8635 11.4551 14.4669 10.0586 12.7442 10.0586C11.0215 10.0586 9.625 11.4551 9.625 13.1778C9.625 14.9005 11.0215 16.2971 12.7442 16.2971Z" stroke="black" stroke-width="1.5" stroke-linecap="round" stroke-linejoin="round"/>
</g>
</g>
</svg>
