<svg width="31" height="34" viewBox="0 0 31 34" fill="none" xmlns="http://www.w3.org/2000/svg">
<g id="Group">
<path id="Vector" d="M23.6714 12.275C24.0477 12.1854 24.3523 12.0958 24.6749 12.06C25.535 11.9345 26.413 12.4184 26.5743 13.2785C26.7535 14.1565 27.1656 14.5866 28.0437 14.7658C28.9934 14.9629 29.531 15.9664 29.2084 16.9161C28.9397 17.6866 29.1009 18.2242 29.7102 18.7618C30.4986 19.4606 30.4986 20.5716 29.7102 21.2884C29.1009 21.826 28.9755 22.3456 29.2264 23.1162C29.5489 24.1197 28.9934 25.0335 27.9899 25.3202C26.8431 25.6607 26.9685 25.4994 26.6281 26.6821C26.4489 27.3451 26.0188 27.7931 25.3737 27.9365C25.0512 28.0081 24.9974 28.1515 24.9974 28.4382C24.9974 30.0689 24.9974 31.6995 24.9974 33.3302C24.9974 33.5094 24.9257 33.7423 24.8003 33.8677C24.6569 34.0469 24.4061 34.029 24.209 33.9036C23.9581 33.7602 23.7072 33.599 23.4205 33.4198C22.9725 34.0111 22.3274 33.9932 21.6644 33.9932C14.9984 33.9932 8.33247 33.9932 1.66649 33.9932C0.501741 33.9932 0 33.4735 0 32.3088C0 23.0624 0 13.834 0 4.58763C0 3.45872 0.519659 2.93906 1.63065 2.93906C3.15379 2.93906 4.67694 2.93906 6.18216 2.93906C6.39719 2.93906 6.52262 2.90322 6.63014 2.68819C6.80933 2.3298 7.11396 2.15061 7.50819 2.16853C7.79489 2.16853 7.86657 2.06101 7.84865 1.81014C7.75905 0.8425 8.5475 -0.0176263 9.67642 0.000292973C11.1458 0.0361315 12.5973 0.0182123 14.0666 0.000292973C15.1776 -0.0176263 15.9482 0.788742 15.8765 1.79222C15.8586 2.06101 15.9482 2.18645 16.2349 2.16853C16.6291 2.16853 16.9337 2.34772 17.1129 2.70611C17.2204 2.90322 17.3459 2.93906 17.543 2.93906C19.0303 2.93906 20.5355 2.93906 22.0228 2.93906C23.1338 2.93906 23.6535 3.45872 23.6535 4.58763C23.6535 7.00673 23.6535 9.40792 23.6535 11.827C23.6535 11.9525 23.6535 12.0958 23.6535 12.2571L23.6714 12.275ZM17.5251 31.1082C17.5251 30.266 17.5071 29.4775 17.5251 28.6712C17.543 28.2232 17.4534 28.0081 17.0054 27.811C16.5753 27.6139 16.1632 27.5602 15.7152 27.5602C12.0955 27.5602 8.4579 27.5602 4.83821 27.5602C4.39023 27.5602 4.13936 27.363 4.13936 27.0405C4.13936 26.718 4.40815 26.5208 4.83821 26.5029C4.90989 26.5029 4.99948 26.5029 5.07116 26.5029C8.5475 26.5029 12.0238 26.5029 15.5181 26.5029H15.9482C15.9123 25.8757 15.6615 25.5174 15.0701 25.4278C14.873 25.3919 14.6759 25.3202 14.4788 25.2486C14.0129 25.0873 13.6724 24.7647 13.5111 24.3168C13.4036 24.0301 13.2424 23.9763 12.9915 23.9763C10.3394 23.9763 7.68738 23.9763 5.03532 23.9763C4.89197 23.9763 4.73069 23.9763 4.58734 23.9584C4.30063 23.9046 4.13935 23.7075 4.15727 23.4387C4.15727 23.1699 4.33647 22.9728 4.6411 22.9549C4.74861 22.9549 4.87405 22.9549 4.98157 22.9549C7.63362 22.9549 10.2857 22.9549 12.9377 22.9549C13.4753 22.9549 13.7262 22.6861 13.6007 22.1485C13.5649 21.9693 13.4215 21.826 13.2961 21.6647C13.0452 21.3601 12.7406 21.0734 12.5614 20.7329C12.4181 20.482 12.2926 20.4104 12.0238 20.4104C9.6585 20.4104 7.31107 20.4104 4.94573 20.4104C4.83821 20.4104 4.74861 20.4104 4.6411 20.4104C4.35439 20.3924 4.17519 20.2132 4.15727 19.9445C4.13935 19.6578 4.28272 19.4606 4.56942 19.4069C4.69486 19.371 4.83821 19.371 4.98157 19.371C7.38275 19.371 9.78394 19.371 12.1851 19.371C12.3285 19.371 12.4897 19.2994 12.5793 19.2098C12.7944 19.0127 12.9377 18.7259 13.1528 18.5468C13.6007 18.1705 13.6724 17.7583 13.5111 17.2207C13.4215 16.934 13.2782 16.8623 13.0094 16.8623C10.3215 16.8623 7.63362 16.8623 4.94573 16.8623C4.40815 16.8623 4.13936 16.6831 4.13936 16.3427C4.13936 15.9843 4.39023 15.823 4.9278 15.823C7.65154 15.823 10.3753 15.823 13.0811 15.823C13.332 15.823 13.4753 15.7693 13.5828 15.5363C13.7979 15.1242 14.1562 14.8733 14.6042 14.7479C14.8372 14.6762 15.088 14.6404 15.321 14.5328C15.5002 14.4612 15.6973 14.3178 15.769 14.1565C15.8944 13.9057 15.9482 13.601 16.0378 13.2785C15.8407 13.2785 15.6973 13.2785 15.5539 13.2785C12.0418 13.2785 8.52959 13.2785 5.01741 13.2785C4.90989 13.2785 4.78445 13.2785 4.67694 13.2785C4.37231 13.2785 4.13936 13.0635 4.13936 12.7767C4.13936 12.508 4.35439 12.275 4.65902 12.2571C4.80237 12.2571 4.92781 12.2571 5.07116 12.2571C8.85213 12.2571 12.651 12.2571 16.432 12.2571C16.5933 12.2571 16.7725 12.2929 16.8979 12.2392C17.543 11.9525 18.1522 12.0779 18.7794 12.275C19.1199 12.3825 19.4066 12.275 19.6754 12.0241C19.9442 11.7553 20.213 11.5045 20.5176 11.3074C20.7147 11.1819 20.8043 11.0744 20.8043 10.8415C20.8043 8.69115 20.8043 6.55875 20.8043 4.40844C20.8043 4.283 20.8043 4.17549 20.8043 4.05005H17.2921C17.2921 4.48011 17.2921 4.87434 17.2921 5.28648C17.2921 6.21829 16.9337 6.57667 15.984 6.57667C13.2782 6.57667 10.5903 6.55875 7.88449 6.57667C6.91685 6.57667 6.43303 6.14661 6.48679 5.19689C6.52263 4.82058 6.48679 4.42636 6.48679 4.05005H2.90293V31.1261H17.543L17.5251 31.1082ZM24.872 26.9688C25.2304 26.9509 25.4812 26.7896 25.5887 26.4671C25.6604 26.27 25.6963 26.0729 25.75 25.8757C25.9292 25.1052 26.413 24.6393 27.1836 24.4601C27.3628 24.4243 27.5599 24.3705 27.7391 24.3168C28.1333 24.1913 28.3304 23.8329 28.2229 23.4387C28.1691 23.2058 28.0974 22.9728 28.0437 22.7399C27.8824 22.0948 28.0437 21.5393 28.4917 21.0555C28.5992 20.9479 28.7067 20.8225 28.8321 20.715C29.3518 20.1953 29.3518 19.8728 28.8321 19.371C28.6888 19.2277 28.5633 19.1023 28.42 18.9589C28.0258 18.5109 27.8824 17.9733 28.0078 17.382C28.0616 17.167 28.1154 16.9519 28.1691 16.719C28.2946 16.1993 28.1154 15.823 27.6136 15.7513C26.4309 15.5542 25.75 14.8912 25.5887 13.7085C25.5887 13.7085 25.5887 13.6906 25.5887 13.6727C25.4454 13.2247 25.1049 13.0276 24.6569 13.1351C24.4778 13.1889 24.2806 13.2247 24.1014 13.2785C23.3847 13.4756 22.7575 13.3143 22.2378 12.7767C22.0945 12.6334 21.9511 12.49 21.8078 12.3467C21.4852 12.06 21.1268 12.06 20.8043 12.3467C20.6072 12.5259 20.428 12.723 20.2488 12.8843C19.7829 13.3143 19.2453 13.4398 18.6361 13.2964C18.3852 13.2426 18.1522 13.171 17.9193 13.1172C17.5071 13.0276 17.1667 13.2068 17.0412 13.601C16.9875 13.7802 16.9337 13.9773 16.8979 14.1565C16.7187 14.9271 16.2528 15.4109 15.4823 15.5901C15.3031 15.6438 15.106 15.6797 14.9268 15.7334C14.5146 15.8768 14.3354 16.2172 14.425 16.6473C14.4788 16.8623 14.5325 17.0774 14.5863 17.3103C14.7476 17.9733 14.5863 18.5468 14.1204 19.0306C13.977 19.1739 13.8337 19.3173 13.6903 19.4606C13.314 19.8549 13.314 20.2132 13.6903 20.5896C13.8695 20.7687 14.0487 20.93 14.21 21.1271C14.6042 21.5751 14.7297 22.0948 14.6042 22.6682C14.5505 22.9191 14.4788 23.1699 14.4071 23.4208C14.3175 23.815 14.4967 24.1555 14.873 24.2809C15.0701 24.3526 15.2672 24.3884 15.4643 24.4422C16.2349 24.6214 16.7187 25.0873 16.8979 25.8578C17.1129 26.7896 17.31 27.1659 18.4927 26.7717C19.2453 26.5208 19.8904 26.718 20.4459 27.2914C20.5713 27.4347 20.7147 27.5781 20.8581 27.7035C21.1627 27.9723 21.539 27.9723 21.8436 27.7035C22.0228 27.5422 22.202 27.3451 22.3812 27.1839C22.8471 26.7359 23.4026 26.5746 24.0477 26.7359C24.3523 26.8075 24.639 26.8792 24.9078 26.9509L24.872 26.9688ZM1.80985 4.06797C1.14684 3.96046 1.03932 4.05005 1.03932 4.65931C1.03932 13.9057 1.03932 23.1341 1.03932 32.3804C1.03932 32.9359 1.07516 32.9718 1.64858 32.9718C6.79141 32.9718 11.9343 32.9718 17.0771 32.9718C17.1667 32.9718 17.2563 32.9718 17.3459 32.9718C17.3996 32.9718 17.4713 32.918 17.5071 32.8822C17.6863 32.5238 17.4892 32.2013 17.0771 32.2013C17.0054 32.2013 16.9158 32.2013 16.8441 32.2013C12.0776 32.2013 7.32899 32.2013 2.56246 32.2013C2.34743 32.2013 2.09656 32.1117 1.93529 31.9862C1.82777 31.8966 1.82777 31.6278 1.82777 31.4486C1.82777 22.489 1.82777 13.5473 1.82777 4.58763C1.82777 4.42636 1.82777 4.26508 1.82777 4.10381L1.80985 4.06797ZM11.8626 5.53735C13.2065 5.53735 14.5325 5.53735 15.8765 5.53735C16.1274 5.53735 16.2528 5.46568 16.2349 5.19689C16.217 4.82058 16.2349 4.44428 16.2349 4.06797C16.2349 3.53039 15.9601 3.24368 15.4106 3.20785C15.0522 3.18993 14.873 3.02865 14.873 2.65235C14.873 2.38356 14.873 2.11477 14.873 1.82806C14.873 1.29048 14.6401 1.07545 14.1025 1.07545C12.7585 1.07545 11.4325 1.07545 10.0886 1.07545C8.95965 1.07545 8.90589 1.14713 8.88797 2.25812C8.88797 3.13617 8.83421 3.18993 7.97408 3.18993C7.92033 3.18993 7.88449 3.18993 7.83073 3.18993C7.57986 3.15409 7.50819 3.27952 7.50819 3.53039C7.50819 4.06797 7.52611 4.58763 7.50819 5.12521C7.50819 5.42984 7.59778 5.51943 7.88449 5.51943C9.21052 5.51943 10.5365 5.51943 11.8626 5.51943V5.53735ZM23.8685 32.5059C23.8685 32.5059 23.9402 32.4163 23.9402 32.3984C23.9402 30.929 23.9402 29.4775 23.9402 28.0081C23.9402 27.9185 23.7789 27.7573 23.7072 27.7752C23.4922 27.7931 23.2772 27.8469 23.08 27.9544C22.9188 28.044 22.7933 28.2232 22.6679 28.3486C21.8078 29.1908 20.8043 29.1908 19.9442 28.3486C19.7829 28.2053 19.6575 27.9902 19.4783 27.9185C19.2453 27.8289 18.9586 27.811 18.7077 27.8469C18.6361 27.8469 18.5644 28.1515 18.5644 28.3307C18.5644 29.603 18.5644 30.8752 18.5644 32.1296C18.5644 32.2371 18.5644 32.3625 18.5823 32.5417C19.2991 32.1117 19.98 31.7354 20.6251 31.2874C21.0552 30.9827 21.4135 30.9827 21.8615 31.2874C22.5066 31.7174 23.1876 32.1117 23.8685 32.5238V32.5059ZM22.6141 11.5582C22.6141 11.397 22.6141 11.2715 22.6141 11.164C22.6141 8.97786 22.6141 6.7917 22.6141 4.60555C22.6141 4.03213 22.435 3.88878 21.8436 4.06797C21.8436 6.36164 21.8436 8.65531 21.8436 10.949C21.8436 11.0207 21.8974 11.1282 21.9511 11.164C22.1482 11.2894 22.3633 11.397 22.6141 11.5403V11.5582ZM22.3633 32.9359C22.3633 32.9359 22.3812 32.8822 22.3991 32.8463C22.0407 32.6313 21.7003 32.4163 21.3419 32.2013C21.306 32.1833 21.2164 32.1654 21.1806 32.2013C20.8043 32.4163 20.428 32.6492 20.0517 32.8822C20.0517 32.9001 20.0696 32.918 20.0875 32.9359H22.3633Z" fill="black"/>
<path id="Vector_2" d="M11.8798 8.65535C13.3851 8.65535 14.8903 8.65535 16.3955 8.65535C16.503 8.65535 16.5926 8.65535 16.7001 8.65535C16.951 8.69119 17.1123 8.83454 17.1481 9.10333C17.1839 9.37212 17.0764 9.56923 16.8076 9.65883C16.6822 9.69467 16.5388 9.71259 16.4134 9.71259C13.3851 9.71259 10.3388 9.71259 7.31042 9.71259C7.2029 9.71259 7.07747 9.71259 6.96995 9.67675C6.68324 9.60507 6.53989 9.40796 6.57572 9.12125C6.61156 8.83454 6.77284 8.67327 7.05955 8.65535C7.34625 8.65535 7.63296 8.65535 7.90175 8.65535C9.22778 8.65535 10.5538 8.65535 11.8798 8.65535Z" fill="black"/>
<path id="Vector_3" d="M21.3054 25.9116C18.044 25.9116 15.4099 23.2595 15.4278 19.9982C15.4278 16.719 18.0799 14.1028 21.3591 14.1028C24.6025 14.1028 27.2366 16.7727 27.2366 20.0341C27.2366 23.2954 24.5846 25.9116 21.3054 25.9116ZM21.3054 24.8723C23.9932 24.8723 26.1615 22.7219 26.1794 20.0341C26.1794 17.3462 24.047 15.1779 21.377 15.16C18.6533 15.16 16.4851 17.2924 16.4671 19.9982C16.4671 22.704 18.5995 24.8543 21.3054 24.8723Z" fill="black"/>
<path id="Vector_4" d="M20.2664 21.5571C20.6786 20.9837 21.037 20.482 21.3953 19.9802C21.9867 19.1559 22.578 18.3137 23.1694 17.4894C23.4202 17.1311 23.7249 17.0415 23.9936 17.2386C24.2445 17.4357 24.2624 17.7403 24.0295 18.0808C22.9722 19.5681 21.915 21.0554 20.8578 22.5427C20.5711 22.9548 20.2485 22.9907 19.908 22.6323C19.4959 22.2201 19.0838 21.8259 18.6895 21.4138C18.4207 21.145 18.4028 20.8224 18.6179 20.6074C18.8508 20.3745 19.1375 20.3924 19.4242 20.6791C19.7109 20.9479 19.9797 21.2525 20.2843 21.575L20.2664 21.5571Z" fill="black"/>
</g>
</svg>
