<svg width="26" height="36" viewBox="0 0 26 36" fill="none" xmlns="http://www.w3.org/2000/svg">
<g id="Layer_1" clip-path="url(#clip0_1391_8298)">
<g id="Group">
<path id="Vector" d="M0.0878906 18.009C0.0878906 12.8507 0.0878906 7.71044 0.0878906 2.55218C0.0878906 1.50974 0.477353 0.718931 1.43331 0.287578C1.71655 0.161766 2.05291 0.0898743 2.37156 0.0898743C7.73552 0.0898743 13.0995 0.0898743 18.4634 0.0898743C18.6936 0.0898743 18.9768 0.215686 19.1362 0.377443C21.2605 2.51623 23.3671 4.65503 25.4915 6.79382C25.7393 7.02747 25.7747 7.31504 25.7747 7.62058C25.7747 14.4324 25.7747 21.2621 25.7747 28.0739C25.7747 29.8532 25.7747 31.6326 25.7747 33.3939C25.7747 34.9755 24.8719 35.8922 23.314 35.8922C16.4099 35.8922 9.4881 35.8922 2.58399 35.8922C1.02614 35.8922 0.123296 34.9755 0.123296 33.3939C0.123296 28.2536 0.123296 23.1133 0.123296 17.973L0.0878906 18.009ZM18.074 1.2042C17.897 1.2042 17.7907 1.2042 17.6845 1.2042C12.6392 1.2042 7.5939 1.2042 2.53088 1.2042C1.61034 1.2042 1.18547 1.63556 1.18547 2.55218C1.18547 12.8328 1.18547 23.1313 1.18547 33.4119C1.18547 34.3465 1.61034 34.7778 2.51318 34.7778C9.43499 34.7778 16.3568 34.7778 23.2786 34.7778C24.2346 34.7778 24.624 34.3645 24.624 33.4119C24.624 25.0365 24.624 16.661 24.624 8.30355V7.89017C24.447 7.89017 24.3231 7.89017 24.1992 7.89017C22.9423 7.89017 21.6677 7.89017 20.4108 7.89017C18.9591 7.89017 18.0386 6.9376 18.0386 5.48179C18.0386 4.90665 18.0386 4.33151 18.0386 3.75637C18.0386 2.92961 18.0386 2.08488 18.0386 1.22218L18.074 1.2042ZM23.6858 6.75787C22.181 5.23016 20.6586 3.70246 19.1893 2.19272C19.1893 3.28908 19.1893 4.4753 19.1893 5.66152C19.1893 6.25463 19.6495 6.7399 20.2514 6.7399C21.4198 6.75787 22.5882 6.7399 23.6858 6.7399V6.75787Z" fill="black"/>
<path id="Vector_2" d="M23.2792 36H2.54921C0.955954 36 0 35.0295 0 33.4119C0 28.2716 0 23.1313 0 17.991V13.5696C0 9.90315 0 6.23664 0 2.55217C0 1.41987 0.460274 0.629056 1.39852 0.215676C1.68177 0.0898652 2.03583 0 2.37218 0C8.01939 0 13.2771 0 18.4641 0C18.7119 0 19.0129 0.125811 19.1899 0.305542C20.5176 1.63555 21.863 3.0015 23.1553 4.31353C23.9519 5.12232 24.7486 5.91313 25.5275 6.72192C25.7753 6.97354 25.8284 7.26111 25.8284 7.62057C25.8284 12.7429 25.8284 17.8472 25.8284 22.9695V28.0919C25.8284 29.8712 25.8284 31.6505 25.8284 33.4119C25.8284 35.0295 24.8725 36 23.2792 36ZM9.87819 0.17973C7.43519 0.17973 4.93909 0.17973 2.37218 0.17973C2.05353 0.17973 1.73488 0.251623 1.46934 0.359461C0.601897 0.772841 0.177028 1.47379 0.177028 2.55217C0.177028 6.23664 0.177028 9.90314 0.177028 13.5876V18.009C0.177028 23.1493 0.177028 28.2896 0.177028 33.4299C0.177028 34.9576 1.04447 35.8382 2.54921 35.8382H23.2792C24.784 35.8382 25.6514 34.9576 25.6514 33.4299C25.6514 31.6505 25.6514 29.8712 25.6514 28.1098V22.9875C25.6514 17.8652 25.6514 12.7609 25.6514 7.63854C25.6514 7.31503 25.616 7.08138 25.4036 6.8657C24.607 6.05691 23.8103 5.2661 23.0314 4.45731C21.7391 3.14528 20.3937 1.77933 19.066 0.449326C18.9243 0.305542 18.6588 0.197703 18.4641 0.197703C15.6493 0.197703 12.8169 0.197703 9.89589 0.197703L9.87819 0.17973ZM23.2969 34.8857H2.53151C1.55785 34.8857 1.11528 34.4184 1.11528 33.4299V2.57014C1.11528 1.58163 1.57555 1.1323 2.54921 1.1323H18.1808V5.49975C18.1808 6.91962 19.066 7.81827 20.4645 7.81827C21.3319 7.81827 22.1994 7.81827 23.0668 7.81827H24.7663V33.4299C24.7663 34.4363 24.3237 34.8857 23.3146 34.8857H23.2969ZM2.53151 1.29406C1.64636 1.29406 1.2746 1.67149 1.2746 2.55217V33.4119C1.2746 34.3105 1.64636 34.688 2.5138 34.688H23.2792C24.1821 34.688 24.5538 34.3105 24.5538 33.4119V7.98003H23.0314C22.164 7.98003 21.2965 7.98003 20.4291 7.98003C18.942 7.98003 17.9684 6.99151 17.9684 5.48178C17.9684 5.10434 17.9684 4.70894 17.9684 4.3315V1.29406H2.53151ZM21.7214 6.84773C21.2434 6.84773 20.7477 6.84773 20.2521 6.84773C19.597 6.84773 19.1014 6.32651 19.1014 5.67948C19.1014 4.83475 19.1014 3.97204 19.1014 3.14528C19.1014 2.82177 19.1014 2.49825 19.1014 2.19271V1.97703L20.3406 3.23515C21.4735 4.38542 22.6242 5.55367 23.7572 6.70394L23.9165 6.84773H23.7041C23.0668 6.84773 22.4118 6.84773 21.7391 6.84773H21.7214ZM19.2784 2.40839C19.2784 2.64204 19.2784 2.89366 19.2784 3.14528C19.2784 3.97204 19.2784 4.81677 19.2784 5.67948C19.2784 6.23665 19.7033 6.668 20.2521 6.668C21.0841 6.668 21.9161 6.668 22.7305 6.668C22.9783 6.668 23.2261 6.668 23.474 6.668C22.3941 5.57164 21.2965 4.45731 20.1989 3.34299L19.2607 2.39041L19.2784 2.40839Z" fill="black"/>
</g>
<path id="Vector_3" d="M15.4377 22.4843C15.4377 24.4433 15.4377 26.4024 15.4377 28.3794C15.4377 29.2961 14.8004 29.9071 13.9507 29.7813C13.6852 29.7454 13.4196 29.6016 13.2072 29.4398C11.6493 28.3435 10.0915 27.2471 8.53363 26.1508C8.39201 26.0429 8.17957 25.989 8.00255 25.989C7.27673 25.971 6.55091 25.989 5.80739 25.989C4.76293 25.989 4.03711 25.2341 4.03711 24.1917C4.03711 23.0594 4.03711 21.9091 4.03711 20.7768C4.03711 19.7164 4.76293 18.9795 5.80739 18.9616C6.55091 18.9616 7.29443 18.9616 8.03795 18.9616C8.21498 18.9616 8.40971 18.8897 8.55133 18.7998C10.1092 17.7034 11.667 16.6071 13.2249 15.5107C13.7029 15.1692 14.1985 15.0255 14.7473 15.313C15.3138 15.6006 15.4731 16.1038 15.4731 16.7149C15.4731 18.656 15.4731 20.5971 15.4731 22.5382L15.4377 22.4843ZM14.3402 22.4843C14.3402 20.5432 14.3402 18.6021 14.3402 16.661C14.3402 16.5172 14.2517 16.3914 14.2162 16.2476C14.0923 16.2836 13.9507 16.3015 13.8445 16.3734C12.3043 17.4518 10.7819 18.5302 9.24174 19.6086C9.06472 19.7344 9.01161 19.8602 9.01161 20.0759C9.01161 21.6575 9.01161 23.2212 9.01161 24.8028C9.01161 25.0364 9.10012 25.1802 9.27715 25.324C10.7819 26.3844 12.2866 27.4448 13.7914 28.4873C13.9153 28.5771 14.0746 28.5951 14.2162 28.649C14.2517 28.5052 14.3402 28.3435 14.3402 28.1997C14.3402 26.2946 14.3402 24.3894 14.3402 22.4843ZM7.87863 24.8567V20.0579C7.15281 20.0579 6.4447 20.0579 5.73658 20.0579C5.38253 20.0579 5.13469 20.3095 5.13469 20.669C5.13469 21.8732 5.13469 23.0594 5.13469 24.2636C5.13469 24.6051 5.38253 24.8387 5.70118 24.8567C6.40929 24.8567 7.13511 24.8567 7.86092 24.8567H7.87863Z" fill="black"/>
<path id="Vector_4" d="M21.8095 22.4663C21.7741 23.7064 21.3846 24.7848 20.5526 25.6835C20.2339 26.025 19.9153 26.0789 19.6497 25.8452C19.4019 25.6116 19.4196 25.2881 19.7205 24.9466C21.0128 23.4728 21.0128 21.4598 19.7205 19.986C19.5081 19.7344 19.3665 19.4828 19.5612 19.1772C19.7559 18.8537 20.1631 18.8537 20.4463 19.1593C21.3315 20.0939 21.7564 21.2082 21.7741 22.4843L21.8095 22.4663Z" fill="black"/>
<path id="Vector_5" d="M19.0315 22.4483C19.0138 22.9516 18.8545 23.4009 18.5181 23.7783C18.2703 24.0479 17.9694 24.0839 17.7215 23.8682C17.4914 23.6705 17.456 23.365 17.6684 23.0774C18.0225 22.5562 18.0225 22.3764 17.6684 21.8552C17.4737 21.5677 17.4914 21.2801 17.7392 21.0644C17.9694 20.8667 18.2703 20.8847 18.5181 21.1363C18.8722 21.5137 19.0315 21.9631 19.0492 22.4663L19.0315 22.4483Z" fill="black"/>
</g>
<defs>
<clipPath id="clip0_1391_8298">
<rect width="25.8462" height="36" fill="white"/>
</clipPath>
</defs>
</svg>
