<svg width="19" height="20" viewBox="0 0 19 20" fill="none" xmlns="http://www.w3.org/2000/svg">
<path d="M7.91671 4.45833H11.0834C11.0834 4.03841 10.9166 3.63568 10.6196 3.33875C10.3227 3.04182 9.91997 2.875 9.50004 2.875C9.08011 2.875 8.67739 3.04182 8.38045 3.33875C8.08352 3.63568 7.91671 4.03841 7.91671 4.45833V4.45833ZM6.72921 4.45833C6.72921 4.09446 6.80088 3.73415 6.94012 3.39798C7.07937 3.06181 7.28347 2.75635 7.54077 2.49906C7.79806 2.24176 8.10352 2.03766 8.43969 1.89842C8.77586 1.75917 9.13617 1.6875 9.50004 1.6875C9.86391 1.6875 10.2242 1.75917 10.5604 1.89842C10.8966 2.03766 11.202 2.24176 11.4593 2.49906C11.7166 2.75635 11.9207 3.06181 12.06 3.39798C12.1992 3.73415 12.2709 4.09446 12.2709 4.45833H16.823C16.9804 4.45833 17.1315 4.52089 17.2428 4.63224C17.3542 4.74359 17.4167 4.89461 17.4167 5.05208C17.4167 5.20956 17.3542 5.36058 17.2428 5.47193C17.1315 5.58328 16.9804 5.64583 16.823 5.64583H15.778L14.8517 15.2337C14.7807 15.9684 14.4385 16.6502 13.892 17.1462C13.3454 17.6423 12.6337 17.9169 11.8956 17.9167H7.10446C6.36652 17.9168 5.655 17.642 5.10863 17.146C4.56226 16.65 4.2202 15.9682 4.14917 15.2337L3.22212 5.64583H2.17712C2.01965 5.64583 1.86863 5.58328 1.75728 5.47193C1.64593 5.36058 1.58337 5.20956 1.58337 5.05208C1.58337 4.89461 1.64593 4.74359 1.75728 4.63224C1.86863 4.52089 2.01965 4.45833 2.17712 4.45833H6.72921ZM8.31254 8.21875C8.31254 8.06128 8.24998 7.91026 8.13863 7.79891C8.02728 7.68756 7.87626 7.625 7.71879 7.625C7.56132 7.625 7.4103 7.68756 7.29895 7.79891C7.1876 7.91026 7.12504 8.06128 7.12504 8.21875V14.1563C7.12504 14.3137 7.1876 14.4647 7.29895 14.5761C7.4103 14.6874 7.56132 14.75 7.71879 14.75C7.87626 14.75 8.02728 14.6874 8.13863 14.5761C8.24998 14.4647 8.31254 14.3137 8.31254 14.1563V8.21875ZM11.2813 7.625C11.4388 7.625 11.5898 7.68756 11.7011 7.79891C11.8125 7.91026 11.875 8.06128 11.875 8.21875V14.1563C11.875 14.3137 11.8125 14.4647 11.7011 14.5761C11.5898 14.6874 11.4388 14.75 11.2813 14.75C11.1238 14.75 10.9728 14.6874 10.8614 14.5761C10.7501 14.4647 10.6875 14.3137 10.6875 14.1563V8.21875C10.6875 8.06128 10.7501 7.91026 10.8614 7.79891C10.9728 7.68756 11.1238 7.625 11.2813 7.625ZM5.33112 15.1197C5.37382 15.5604 5.57911 15.9694 5.90696 16.2669C6.2348 16.5645 6.66171 16.7293 7.10446 16.7292H11.8956C12.3384 16.7293 12.7653 16.5645 13.0931 16.2669C13.421 15.9694 13.6263 15.5604 13.669 15.1197L14.5857 5.64583H4.41437L5.33112 15.1197Z" fill="#ED2C23"/>
</svg>
