<svg width="312" height="206" viewBox="0 0 312 206" fill="none" xmlns="http://www.w3.org/2000/svg">
<path d="M4.4082 98.0579C102.941 97.7643 213.467 97.7595 311.999 98.0579C213.467 98.3564 102.941 98.3515 4.4082 98.0579Z" fill="#263238"/>
<path d="M202.701 166.202L250.499 154.453L311.23 162.914L261.367 175.534L202.701 166.202Z" fill="#DBDBDB"/>
<path d="M202.701 166.2L250.485 154.398C250.485 154.398 311.259 162.802 311.259 162.797L311.87 162.879L311.259 163.038L261.367 175.6C261.367 175.6 202.72 166.195 202.701 166.2ZM202.701 166.2C202.701 166.2 261.459 175.475 261.353 175.47L311.201 162.797V163.033C311.201 163.033 250.422 154.5 250.514 154.504L202.701 166.2Z" fill="#DBDBDB"/>
<path d="M259.467 172.26C262.408 171.355 265.44 170.513 268.482 169.68C271.523 168.847 274.613 168.048 277.713 167.274C280.813 166.499 283.97 165.714 287.137 164.978L291.911 163.876C293.538 163.529 295.131 163.163 296.777 162.836C295.333 163.293 293.803 163.712 292.316 164.155L287.767 165.411C284.735 166.253 281.636 167.047 278.536 167.817C275.436 168.588 272.279 169.377 269.112 170.113C265.945 170.85 262.749 171.586 259.467 172.26Z" fill="#C7C7C7"/>
<path d="M267.365 167.484C270.734 166.329 274.373 165.337 278.06 164.394C281.747 163.451 285.549 162.56 289.601 161.867C286.232 163.027 282.598 164.014 278.907 164.957C275.215 165.901 271.394 166.772 267.365 167.484Z" fill="#C7C7C7"/>
<path d="M245.066 170.35C248.007 169.445 251.039 168.603 254.081 167.77C257.123 166.937 260.213 166.138 263.313 165.363C266.412 164.588 269.57 163.804 272.732 163.068L277.511 161.97C279.133 161.624 280.731 161.258 282.377 160.926C280.933 161.383 279.403 161.807 277.915 162.245L273.367 163.506C270.33 164.343 267.235 165.137 264.136 165.912C261.036 166.687 257.879 167.472 254.712 168.208C251.545 168.944 248.349 169.676 245.066 170.35Z" fill="#C7C7C7"/>
<path d="M243.227 168.036C248.227 166.467 253.478 165.071 258.792 163.704C264.105 162.337 269.525 161.067 275.156 159.945C270.155 161.514 264.904 162.91 259.596 164.277C254.287 165.644 248.877 166.915 243.227 168.036Z" fill="#C7C7C7"/>
<path d="M249.475 163.679C252.232 162.678 255.25 161.845 258.316 161.056C261.382 160.267 264.573 159.554 267.976 158.996C265.218 160.002 262.2 160.83 259.139 161.619C256.078 162.409 252.882 163.121 249.475 163.679Z" fill="#C7C7C7"/>
<path d="M5.17969 116.861L71.5033 104.309L135.502 123.007L69.5107 136.012L5.17969 116.861Z" fill="#EBEBEB"/>
<path d="M5.17969 116.861L71.5081 104.246C71.5081 104.246 135.521 122.897 135.521 122.892L136.003 123.031L135.521 123.128L69.5107 136.084C69.4866 136.084 5.19894 116.875 5.17969 116.875V116.861ZM5.17969 116.861L69.5299 135.95C69.3711 135.983 135.521 122.877 135.468 122.892V123.123L71.4888 104.352C71.614 104.323 5.16044 116.866 5.17969 116.866V116.861Z" fill="#DBDBDB"/>
<path d="M68.582 132.199C72.9138 131.198 77.2792 130.274 81.6639 129.345C86.0485 128.416 90.4669 127.53 94.8901 126.654C99.3132 125.778 103.76 124.922 108.237 124.108L114.951 122.886C117.208 122.501 119.446 122.096 121.723 121.73C119.566 122.236 117.391 122.693 115.206 123.174L108.631 124.585C104.251 125.518 99.8282 126.399 95.4099 127.275C90.9915 128.151 86.5395 129.008 82.0633 129.821C77.5872 130.635 73.1159 131.458 68.582 132.199Z" fill="#DBDBDB"/>
<path d="M85.582 125.544C90.3084 124.327 95.2081 123.297 100.122 122.315C105.036 121.333 110.042 120.438 115.182 119.711C110.456 120.929 105.556 121.959 100.642 122.94C95.7279 123.922 90.7223 124.818 85.582 125.544Z" fill="#DBDBDB"/>
<path d="M62.041 126.871C65.8192 125.976 69.6504 125.153 73.4912 124.334C77.332 123.516 81.1921 122.741 85.081 121.966C88.9699 121.191 92.8637 120.45 96.7959 119.743L102.692 118.684C104.68 118.352 106.643 118 108.646 117.688C106.764 118.14 104.848 118.554 102.947 118.987L97.1954 120.224C93.345 121.047 89.4945 121.817 85.6056 122.592C81.7167 123.367 77.8278 124.103 73.8955 124.816C69.9633 125.528 66.0358 126.235 62.041 126.871Z" fill="#DBDBDB"/>
<path d="M58.9551 124.17C62.4445 123.332 65.9869 122.562 69.5437 121.802C73.1006 121.041 76.6815 120.319 80.272 119.607C83.8625 118.895 87.4915 118.202 91.1206 117.552L96.5834 116.589C98.4268 116.286 100.251 115.964 102.109 115.68C100.371 116.108 98.5952 116.488 96.8433 116.897L91.52 118.048C87.9728 118.813 84.3823 119.53 80.7918 120.242C77.2013 120.955 73.5723 121.643 69.9432 122.298C66.3142 122.952 62.6611 123.568 58.9551 124.17Z" fill="#DBDBDB"/>
<path d="M42.4336 124.122C46.7653 123.12 51.1307 122.196 55.5154 121.263C59.9001 120.329 64.3184 119.453 68.7416 118.572C73.1648 117.691 77.612 116.844 82.0833 116.026L88.8216 114.804C91.0789 114.423 93.317 114.014 95.5935 113.648C93.4373 114.159 91.2618 114.611 89.0767 115.092L82.5069 116.488C78.127 117.417 73.7039 118.298 69.2855 119.179C64.8671 120.059 60.4151 120.906 55.939 121.725C51.4628 122.543 46.9675 123.376 42.4336 124.122Z" fill="#DBDBDB"/>
<path d="M41.8828 120.917C45.7044 120.012 49.5837 119.179 53.4678 118.352C57.3519 117.524 61.2745 116.739 65.1971 115.945C69.1197 115.151 73.0664 114.41 77.042 113.693L83.0102 112.619C85.0172 112.282 87.0098 111.926 89.0313 111.613C87.106 112.071 85.1808 112.484 83.2556 112.927L77.4367 114.174C73.5574 115.006 69.6347 115.786 65.7121 116.58C61.7895 117.374 57.838 118.116 53.8624 118.833C49.8869 119.55 45.9209 120.272 41.8828 120.917Z" fill="#DBDBDB"/>
<path d="M29.3555 120.074C33.6872 119.073 38.0526 118.149 42.4421 117.22C46.8316 116.291 51.2451 115.386 55.6876 114.529C60.13 113.672 64.558 112.797 69.0341 111.983L75.7483 110.761C78.0056 110.376 80.2485 109.971 82.5202 109.605C80.364 110.111 78.1885 110.568 76.0082 111.049L69.4384 112.45C65.0585 113.379 60.6354 114.26 56.2122 115.136C51.789 116.012 47.3418 116.868 42.8656 117.682C38.3895 118.495 33.8942 119.333 29.3555 120.074Z" fill="#DBDBDB"/>
<path d="M44.5508 113.775C49.5804 112.495 54.7688 111.407 59.9958 110.368C65.2227 109.328 70.5171 108.37 75.9606 107.586C70.931 108.866 65.7474 109.949 60.5156 110.994C55.2838 112.038 49.9943 112.981 44.5508 113.775Z" fill="#DBDBDB"/>
<path d="M102.363 180.943L186.649 164.992L267.97 188.754L184.113 205.277L102.363 180.943Z" fill="#EBEBEB"/>
<path d="M102.373 180.943L186.649 164.93C186.649 164.93 267.989 188.643 267.989 188.639L268.471 188.778L267.989 188.875L184.113 205.34C184.089 205.345 102.373 180.943 102.373 180.943ZM102.373 180.943L184.141 205.22C183.992 205.22 267.994 188.629 267.956 188.639V188.87L186.63 165.05C186.755 165.012 102.344 180.967 102.363 180.933L102.373 180.943Z" fill="#DBDBDB"/>
<path d="M182.93 200.436C188.421 199.165 194 197.977 199.559 196.807C205.118 195.637 210.744 194.506 216.361 193.39C221.978 192.273 227.633 191.19 233.322 190.151L241.856 188.601C244.743 188.119 247.569 187.595 250.461 187.133C247.723 187.778 244.941 188.37 242.183 188.991L233.832 190.762C228.268 191.946 222.647 193.062 217.03 194.179C211.413 195.296 205.758 196.379 200.069 197.413C194.38 198.448 188.696 199.493 182.93 200.436Z" fill="#DBDBDB"/>
<path d="M204.535 191.975C210.542 190.43 216.751 189.12 223.008 187.874C229.265 186.627 235.618 185.467 242.154 184.562C236.147 186.112 229.934 187.421 223.677 188.668C217.42 189.915 211.066 191.05 204.535 191.975Z" fill="#DBDBDB"/>
<path d="M174.623 193.659C179.436 192.523 184.292 191.474 189.173 190.439C194.053 189.404 198.977 188.413 203.901 187.431C208.824 186.449 213.787 185.506 218.783 184.601L226.281 183.253C228.803 182.834 231.301 182.387 233.847 181.992C231.441 182.57 229.034 183.094 226.628 183.643L219.322 185.212C214.446 186.257 209.518 187.238 204.594 188.22C199.67 189.202 194.703 190.145 189.707 191.045C184.711 191.946 179.696 192.874 174.623 193.659Z" fill="#DBDBDB"/>
<path d="M170.719 190.227C175.152 189.163 179.657 188.186 184.195 187.224C188.734 186.261 193.263 185.337 197.826 184.427C202.388 183.518 206.97 182.647 211.61 181.819L218.56 180.577C220.899 180.197 223.214 179.783 225.578 179.422C223.368 179.966 221.116 180.452 218.883 180.967L212.12 182.411C207.615 183.373 203.053 184.293 198.49 185.202C193.927 186.112 189.345 186.983 184.705 187.811C180.066 188.639 175.407 189.505 170.719 190.227Z" fill="#DBDBDB"/>
<path d="M149.701 190.165C155.193 188.894 160.771 187.706 166.33 186.536C171.889 185.366 177.516 184.235 183.132 183.119C188.749 182.002 194.405 180.919 200.079 179.884L208.613 178.335C211.5 177.853 214.326 177.329 217.218 176.891C214.48 177.536 211.698 178.128 208.94 178.748L200.589 180.52C195.025 181.704 189.404 182.82 183.787 183.937C178.17 185.054 172.515 186.136 166.826 187.171C161.137 188.206 155.467 189.222 149.701 190.165Z" fill="#DBDBDB"/>
<path d="M149.008 186.099C153.864 184.954 158.793 183.89 163.731 182.845C168.669 181.801 173.646 180.795 178.651 179.799C183.657 178.803 188.653 177.85 193.706 176.94L201.268 175.554C203.823 175.13 206.35 174.678 208.925 174.273C206.519 174.856 204.04 175.385 201.595 175.944L194.202 177.532C189.269 178.586 184.283 179.582 179.282 180.574C174.281 181.565 169.28 182.499 164.227 183.433C159.173 184.366 154.139 185.281 149.008 186.099Z" fill="#DBDBDB"/>
<path d="M133.086 185.03C138.578 183.759 144.156 182.57 149.715 181.401C155.274 180.231 160.9 179.1 166.517 177.984C172.134 176.867 177.789 175.784 183.478 174.744L192.012 173.195C194.9 172.713 197.725 172.189 200.613 171.727C197.879 172.372 195.097 172.964 192.339 173.584L183.989 175.356C178.425 176.54 172.803 177.656 167.186 178.773C161.569 179.889 155.914 180.972 150.225 182.007C144.536 183.042 138.852 184.086 133.086 185.03Z" fill="#DBDBDB"/>
<path d="M152.396 177.022C158.788 175.4 165.392 174.018 172.019 172.69C178.647 171.362 185.395 170.149 192.311 169.152C185.919 170.779 179.316 172.16 172.683 173.484C166.051 174.808 159.313 176.035 152.396 177.022Z" fill="#DBDBDB"/>
<path d="M308.323 140.515L152.275 183.63V152.553L308.323 109.438C316.592 124.685 308.323 140.515 308.323 140.515Z" fill="#37474F"/>
<path d="M0 162.076L152.275 183.634V175.755L13.9241 158.832L0 159.669V162.076Z" fill="#455A64"/>
<path d="M152.279 152.698C157.968 166.391 152.279 183.631 152.279 183.631L7.34375 160.74V133.879L152.279 152.698Z" fill="#455A64"/>
<path d="M148.693 152.234C154.233 165.874 149.15 180.563 149.15 180.563L7.34375 160.628V133.867L148.693 152.234Z" fill="white"/>
<path d="M148.693 152.237C148.881 152.766 149.425 154.258 149.613 154.783C150.739 158.53 151.309 162.422 151.307 166.334C151.328 171.161 150.625 175.963 149.223 180.581C149.29 180.793 7.35861 160.795 7.31048 160.847L7.10352 160.819V160.631V133.87V133.625L7.34417 133.659L78.0476 142.914L148.664 152.227L148.693 152.237ZM148.693 152.237C113.924 147.564 41.1653 138.939 7.55594 133.88L7.58 160.641L7.37304 160.4C7.37304 160.453 149.473 180.417 149.069 180.542C149.787 178.251 150.325 175.906 150.676 173.53C151.75 166.421 151.336 158.961 148.688 152.237H148.693Z" fill="#DBDBDB"/>
<path d="M75.959 145.473C99.6198 148.36 126.12 151.922 149.699 155.421C126.039 152.533 99.538 148.967 75.959 145.473Z" fill="#DBDBDB"/>
<path d="M7.34375 143.668C27.6259 146.074 50.1268 149.126 70.3367 152.163C50.0401 149.756 27.5489 146.715 7.34375 143.668Z" fill="#DBDBDB"/>
<path d="M10.7227 146.312C45.1888 150.644 83.8037 155.852 118.178 160.805C83.7171 156.473 45.1021 151.265 10.7227 146.312Z" fill="#DBDBDB"/>
<path d="M29.3555 155.402C65.1067 159.826 105.166 165.139 140.83 170.183C105.084 165.765 65.0248 160.446 29.3555 155.402Z" fill="#DBDBDB"/>
<path d="M53.3867 161.066C84.5655 164.965 119.532 169.672 150.639 174.187C119.446 170.298 84.4981 165.581 53.3867 161.066Z" fill="#DBDBDB"/>
<path d="M25.3652 161.012C65.3134 166.104 110.075 172.139 149.922 177.814C109.973 172.727 65.2123 166.686 25.3652 161.012Z" fill="#DBDBDB"/>
<path d="M152.279 152.699L308.323 109.439L150.638 102.297L0 130.232V132.927L152.279 152.699Z" fill="#455A64"/>
<path d="M156.279 147.947C175.637 142.079 195.52 136.78 215.383 132.203C196.03 138.075 176.147 143.365 156.279 147.947Z" fill="#37474F"/>
<path d="M118.844 145.191C124.234 145.471 129.803 146.096 135.155 146.746C140.507 147.396 146.033 148.19 151.279 149.273C145.888 148.999 140.319 148.368 134.972 147.718C129.625 147.068 124.095 146.25 118.844 145.191Z" fill="#37474F"/>
<path d="M4.1875 130.754C40.8387 134.691 77.7835 139.336 114.189 144.596C77.5092 140.669 40.5692 136.015 4.1875 130.754Z" fill="#37474F"/>
<path d="M258.314 126.968C273.543 122.183 288.956 117.824 304.553 113.891C289.331 118.675 273.918 123.034 258.314 126.968Z" fill="#455A64"/>
<path d="M177.405 103.262C175.384 103.657 167.038 104.105 166.87 102.3C166.61 99.5852 186.569 80.3331 193.731 76.7137C200.542 73.2675 222.484 65.7496 227.904 65.5859L227.952 82.8743C224.886 83.6541 200.46 81.2716 195.329 83.9958C193.101 85.1798 190.15 90.0891 184.144 97.8862C182.031 100.634 178.599 103.027 177.405 103.262Z" fill="#F7C06E"/>
<g opacity="0.3">
<path d="M177.405 103.266C175.384 103.661 167.038 104.109 166.87 102.304C166.61 99.5891 186.569 80.337 193.731 76.7176C200.542 73.2714 222.484 65.7535 227.904 65.5898L227.952 82.8782C224.886 83.658 200.46 81.2755 195.329 83.9997C193.101 85.1837 190.15 90.093 184.144 97.8901C182.031 100.638 178.599 103.03 177.405 103.266Z" fill="black"/>
</g>
<path d="M173.261 103.262C171.235 103.657 163.476 104.105 163.303 102.3C163.048 99.5852 183.008 80.3331 190.165 76.7137C196.975 73.2675 222.484 65.7496 227.904 65.5859L227.952 82.8743C224.886 83.6541 196.898 81.2716 191.767 83.9958C189.539 85.1798 185.992 90.0891 179.995 97.8862C177.887 100.634 174.455 103.027 173.261 103.262Z" fill="#F7C06E"/>
<g opacity="0.2">
<path d="M173.261 103.266C171.235 103.661 163.476 104.109 163.303 102.304C163.048 99.5891 183.008 80.337 190.165 76.7176C196.975 73.2714 222.484 65.7535 227.904 65.5898L227.952 82.8782C224.886 83.658 196.898 81.2755 191.767 83.9997C189.539 85.1837 185.992 90.093 179.995 97.8901C177.887 100.638 174.455 103.03 173.261 103.266Z" fill="black"/>
</g>
<path d="M251.958 126.206C253.701 126.938 260.555 127.308 261.729 125.831C263.5 123.592 241.89 93.1404 229.193 87.6151C217.319 82.4892 49.8016 49.9531 46.3458 49.4141L46.2207 62.9291C69.5591 66.5773 217.646 90.1708 226.806 94.1608C232.779 96.755 240.388 110.443 245.856 119.901C248.065 123.742 249.937 125.359 251.958 126.206Z" fill="#F7C06E"/>
<g opacity="0.2">
<path d="M251.958 126.206C253.701 126.938 260.555 127.308 261.729 125.831C263.5 123.592 241.89 93.1404 229.193 87.6151C217.319 82.4892 49.8016 49.9531 46.3458 49.4141L46.2207 62.9291C69.5591 66.5773 217.646 90.1708 226.806 94.1608C232.779 96.755 240.388 110.443 245.856 119.901C248.065 123.742 249.937 125.359 251.958 126.206Z" fill="black"/>
</g>
<path d="M249.066 126.206C250.808 126.938 257.662 127.308 258.836 125.831C260.608 123.592 239.156 92.404 226.464 86.8787C214.585 81.7528 49.8016 49.9339 46.3459 49.4141L43.3281 62.9291C66.6665 66.5773 214.754 90.1708 223.913 94.1608C229.886 96.755 237.495 110.443 242.963 119.901C245.172 123.742 247.044 125.359 249.066 126.206Z" fill="#F7C06E"/>
<g opacity="0.1">
<path d="M249.066 126.206C250.808 126.938 257.662 127.308 258.836 125.831C260.608 123.592 239.156 92.404 226.464 86.8787C214.585 81.7528 49.8016 49.9339 46.3459 49.4141L43.3281 62.9291C66.6665 66.5773 214.754 90.1708 223.913 94.1608C229.886 96.755 237.495 110.443 242.963 119.901C245.172 123.742 247.044 125.359 249.066 126.206Z" fill="black"/>
</g>
<g opacity="0.1">
<path d="M78.7907 55.6518L66.1132 66.5533C55.5678 64.8687 47.4771 63.5933 43.3379 62.9435L46.3509 49.4141C47.2894 49.5585 60.222 52.0372 78.7907 55.6518Z" fill="black"/>
<path d="M111.211 73.8485L103.337 72.5538L96.0215 59.0195L107.616 61.3105L111.211 73.8485Z" fill="black"/>
<path d="M155.558 70.9495L146.654 79.7236L138.746 78.3952L145.07 68.8125C148.584 69.5216 152.08 70.2339 155.558 70.9495Z" fill="black"/>
<path d="M225.375 86.4794L222.31 93.646C220.837 93.2321 218.618 92.7123 215.764 92.1107L213.555 83.375C219.109 84.6841 223.21 85.7478 225.375 86.4794Z" fill="black"/>
</g>
<path d="M78.1835 133.283C60.7314 132.441 47.4523 112.674 48.5785 89.2249C49.1128 78.0346 52.814 67.6288 58.9939 59.9231C65.3808 51.9624 73.6255 47.7847 82.289 48.2227C90.9524 48.6607 98.7592 53.5699 104.347 62.1131C109.762 70.3626 112.447 81.0812 111.904 92.2812C110.835 114.469 97.2335 132.133 80.9799 133.254C80.049 133.317 79.1154 133.327 78.1835 133.283ZM63.4364 63.4944C58.0024 70.2567 54.7248 79.4977 54.2435 89.504C53.2809 109.815 64.1246 126.906 78.4482 127.594C92.7718 128.283 105.223 112.318 106.21 91.9779C106.691 81.9716 104.328 72.4659 99.5774 65.203C95.0002 58.229 88.7577 54.2101 82.0002 53.8876C81.2805 53.8442 80.5589 53.8442 79.8392 53.8876C73.8517 54.3448 68.0954 57.6803 63.4364 63.4848V63.4944ZM48.6026 92.2041C47.7218 75.0505 49.6422 72.3648 48.8625 67.3063C48.4919 64.8998 45.1035 62.5896 45.1035 62.5896L48.0635 50.273C48.0635 50.273 57.2901 51.1731 59.4175 51.2067C63.2005 51.2597 71.3682 48.497 78.4819 48.3189C78.4819 48.3189 63.0176 55.2689 58.0458 64.1297C53.0739 72.9905 48.6026 92.1945 48.6026 92.1945V92.2041Z" fill="#F7C06E"/>
<path opacity="0.1" d="M78.1835 133.283C60.7314 132.441 47.4523 112.674 48.5785 89.2249C49.1128 78.0346 52.814 67.6288 58.9939 59.9231C65.3808 51.9624 73.6255 47.7847 82.289 48.2227C90.9524 48.6607 98.7592 53.5699 104.347 62.1131C109.762 70.3626 112.447 81.0812 111.904 92.2812C110.835 114.469 97.2335 132.133 80.9799 133.254C80.049 133.317 79.1154 133.327 78.1835 133.283ZM63.4364 63.4944C58.0024 70.2567 54.7248 79.4977 54.2435 89.504C53.2809 109.815 64.1246 126.906 78.4482 127.594C92.7718 128.283 105.223 112.318 106.21 91.9779C106.691 81.9716 104.328 72.4659 99.5774 65.203C95.0002 58.229 88.7577 54.2101 82.0002 53.8876C81.2805 53.8442 80.5589 53.8442 79.8392 53.8876C73.8517 54.3448 68.0954 57.6803 63.4364 63.4848V63.4944ZM48.6026 92.2041C47.7218 75.0505 49.6422 72.3648 48.8625 67.3063C48.4919 64.8998 45.1035 62.5896 45.1035 62.5896L48.0635 50.273C48.0635 50.273 57.2901 51.1731 59.4175 51.2067C63.2005 51.2597 71.3682 48.497 78.4819 48.3189C78.4819 48.3189 63.0176 55.2689 58.0458 64.1297C53.0739 72.9905 48.6026 92.1945 48.6026 92.1945V92.2041Z" fill="black"/>
<path d="M75.8113 133.283C58.3545 132.441 45.0753 112.674 46.2016 89.2249C46.7358 78.0346 50.437 67.6288 56.617 59.9231C63.0039 51.9624 71.2486 47.7847 79.912 48.2227C88.5755 48.6607 96.3822 53.5699 101.97 62.1131C107.385 70.3626 110.07 81.0812 109.527 92.2812C108.458 114.469 94.8565 132.133 78.6029 133.254C77.6737 133.317 76.7416 133.327 75.8113 133.283ZM61.0594 63.4944C55.6255 70.2663 52.3671 79.5074 51.8858 89.5137C50.9232 109.825 61.7621 126.916 76.0857 127.604C90.4093 128.292 102.861 112.327 103.847 91.9876C104.329 81.9813 101.965 72.4755 97.2149 65.2127C92.6425 58.2386 86.3952 54.2197 79.6377 53.8972C78.918 53.8539 78.1963 53.8539 77.4766 53.8972C71.4796 54.3448 65.7184 57.6803 61.0594 63.4848V63.4944ZM46.2256 92.2041C45.3448 75.0505 47.2652 72.3648 46.4855 67.3063C46.1149 64.8998 42.7266 62.5896 42.7266 62.5896L45.8213 48.8628C45.8213 48.8628 55.2019 50.5233 57.3245 50.5522C61.1075 50.6099 68.9913 48.497 76.0953 48.3382C76.0953 48.3382 60.631 55.2882 55.6592 64.149C50.6873 73.0098 46.2256 92.1945 46.2256 92.1945V92.2041Z" fill="#F7C06E"/>
<path d="M55.0722 55.1435C54.9615 55.9954 53.378 56.4863 51.5346 56.2409C49.6912 55.9954 48.2955 55.105 48.411 54.2579C48.5265 53.4108 50.1052 52.9151 51.9486 53.1605C53.7919 53.406 55.207 54.2916 55.0722 55.1435Z" fill="#A6A6A6"/>
<path d="M49.2188 54.286C49.368 53.8769 50.9707 53.4149 52.7226 53.8865L49.2188 54.286Z" fill="white"/>
<path d="M45.0995 62.6992C48.4301 64.5667 49.8547 67.3197 49.4793 71.1317C49.1087 77.7448 48.3627 84.2953 48.3531 90.9084C48.3076 94.2088 48.5201 97.5078 48.9884 100.775C46.8562 92.7181 47.4915 84.2231 48.2424 76.0169L48.7237 71.0883C49.2435 67.4016 48.0787 64.8795 45.0898 62.6992H45.0995Z" fill="white"/>
<path d="M62.4941 51.3426C67.1147 50.0238 71.9132 48.936 76.7455 49.1526C71.9325 49.581 67.259 50.6591 62.4941 51.3426Z" fill="white"/>
<path opacity="0.1" d="M62.4893 63.8348C57.2383 70.5731 54.0906 79.7563 53.6189 89.7097C52.6804 109.924 63.1728 126.905 77.0151 127.593C90.8573 128.281 102.895 112.398 103.848 92.1932C104.329 82.2447 102.033 72.7871 97.4416 65.5675C93.0184 58.6271 86.9828 54.6323 80.4467 54.3098C79.7511 54.2665 79.0535 54.2665 78.3579 54.3098C72.5582 54.743 66.9943 58.0544 62.4893 63.8348Z" fill="#EBEBEB"/>
<g opacity="0.2">
<path d="M89.0522 57.027L53.5801 93.5243C53.5464 92.2632 53.5801 90.9974 53.6235 89.7075C53.7913 85.9419 54.3691 82.2058 55.3465 78.5654L78.9304 54.3125C79.4117 54.3125 79.9459 54.3125 80.4561 54.3125C83.5031 54.486 86.4582 55.4192 89.0522 57.027Z" fill="white"/>
<path d="M101.411 73.9952L60.101 116.499C59.3413 115.321 58.6533 114.098 58.041 112.836L99.7748 69.8945C100.397 71.2294 100.944 72.5985 101.411 73.9952Z" fill="white"/>
<path d="M103.02 99.3906C102.516 102.132 101.778 104.826 100.816 107.443L81.5878 127.224C80.0866 127.548 78.5492 127.673 77.0154 127.595C76.5822 127.571 76.1491 127.537 75.7207 127.479L103.02 99.3906Z" fill="white"/>
<path d="M103.096 80.535L63.7012 121.066C63.5135 120.883 63.3354 120.69 63.1621 120.493L102.913 79.582C102.985 79.8997 103.038 80.2222 103.096 80.535Z" fill="white"/>
</g>
<path d="M132.562 93.3327L136.413 89.1502C130.223 83.4227 115.654 75.4234 104.738 86.0361L108.704 90.1176C118.484 80.5926 131.99 92.8129 132.562 93.3327Z" fill="#F7C06E"/>
<path d="M169.4 138.49C158.289 136.45 148.441 130.084 142.021 120.789C135.6 111.494 133.131 100.03 135.155 88.9162C136.672 80.6287 140.612 72.977 146.477 66.9286C152.342 60.8802 159.869 56.7067 168.106 54.9359C176.343 53.1652 184.92 53.8766 192.753 56.9802C200.585 60.0839 207.322 65.4404 212.11 72.3724C216.899 79.3044 219.524 87.5007 219.655 95.9248C219.785 104.349 217.415 112.623 212.843 119.7C208.272 126.777 201.704 132.339 193.972 135.684C186.239 139.029 177.688 140.005 169.4 138.49ZM140.758 89.9558C139.387 97.5092 140.409 105.302 143.682 112.246C146.955 119.191 152.315 124.939 159.013 128.689C165.712 132.44 173.414 134.004 181.045 133.164C188.676 132.324 195.853 129.122 201.576 124.005C207.299 118.888 211.28 112.111 212.965 104.622C214.649 97.1319 213.952 89.3031 210.971 82.2287C207.99 75.1542 202.874 69.1874 196.338 65.1616C189.801 61.1358 182.171 59.252 174.512 59.7733C166.334 60.3449 158.578 63.6211 152.467 69.0856C146.356 74.5501 142.237 81.8924 140.758 89.9558Z" fill="#F7C06E"/>
<path d="M214.999 78.3883C212.068 68.6564 194.996 57.957 194.996 57.957C201.908 59.656 209.531 63.1118 213.237 63.8819C215.317 64.3102 227.927 65.6001 227.927 65.6001L227.975 82.8885C227.975 82.8885 224.51 83.0811 223.643 85.348C221.785 90.1177 222.724 91.2728 218.142 107.82C218.099 107.82 217.887 88.1155 214.999 78.3883Z" fill="#F7C06E"/>
<g opacity="0.1">
<path d="M169.4 138.494C158.289 136.454 148.441 130.088 142.021 120.793C135.6 111.498 133.131 100.034 135.155 88.9201C136.672 80.6326 140.612 72.9809 146.477 66.9325C152.342 60.8841 159.869 56.7106 168.106 54.9399C176.343 53.1691 184.92 53.8805 192.753 56.9841C200.585 60.0878 207.322 65.4443 212.11 72.3763C216.899 79.3083 219.524 87.5046 219.655 95.9287C219.785 104.353 217.415 112.626 212.843 119.703C208.272 126.781 201.704 132.343 193.972 135.688C186.239 139.032 177.688 140.009 169.4 138.494ZM140.758 89.9597C139.387 97.5131 140.409 105.306 143.682 112.25C146.955 119.194 152.315 124.943 159.013 128.693C165.712 132.443 173.414 134.008 181.045 133.168C188.676 132.328 195.853 129.126 201.576 124.009C207.299 118.892 211.28 112.115 212.965 104.626C214.649 97.1358 213.952 89.307 210.971 82.2326C207.99 75.1581 202.874 69.1913 196.338 65.1655C189.801 61.1397 182.171 59.2559 174.512 59.7772C166.334 60.3488 158.578 63.625 152.467 69.0895C146.356 74.554 142.237 81.8963 140.758 89.9597Z" fill="black"/>
<path d="M214.999 78.3923C212.068 68.6603 194.996 57.9609 194.996 57.9609C201.908 59.6599 209.531 63.1157 213.237 63.8858C215.317 64.3141 227.927 65.604 227.927 65.604L227.975 82.8924C227.975 82.8924 224.51 83.085 223.643 85.3519C221.785 90.1216 222.724 91.2767 218.142 107.824C218.099 107.824 217.887 88.1194 214.999 78.3923Z" fill="black"/>
</g>
<path d="M165.613 137.871C154.511 135.83 144.671 129.47 138.251 120.185C131.832 110.899 129.356 99.4473 131.368 88.3397C132.875 80.043 136.809 72.3796 142.673 66.3195C148.537 60.2594 156.066 56.0749 164.309 54.2956C172.551 52.5162 181.137 53.222 188.978 56.3236C196.819 59.4252 203.564 64.7832 208.36 71.7195C213.155 78.6559 215.785 86.8588 215.916 95.2903C216.048 103.722 213.675 112.003 209.099 119.085C204.522 126.168 197.948 131.734 190.207 135.079C182.466 138.423 173.907 139.397 165.613 137.875V137.871ZM136.971 89.3601C135.594 96.9195 136.613 104.72 139.885 111.672C143.158 118.624 148.52 124.38 155.224 128.136C161.927 131.892 169.636 133.46 177.274 132.62C184.912 131.781 192.097 128.577 197.824 123.455C203.552 118.333 207.537 111.55 209.222 104.053C210.907 96.5564 210.207 88.7205 207.222 81.6406C204.236 74.5606 199.113 68.5902 192.569 64.5638C186.024 60.5373 178.386 58.6559 170.72 59.1824C162.543 59.7548 154.79 63.0307 148.68 68.4942C142.57 73.9576 138.45 81.2983 136.971 89.3601Z" fill="#F7C06E"/>
<path d="M211.187 77.7868C208.255 68.0548 191.184 57.3555 191.184 57.3555C198.095 59.0545 205.719 62.5102 209.425 63.2803C211.504 63.7087 224.114 64.9986 224.114 64.9986L224.162 80.8286C224.162 80.8286 220.697 81.8779 219.831 84.14C217.968 88.9097 218.907 90.6713 214.325 107.243C214.31 107.204 214.118 87.5139 211.187 77.7868Z" fill="#F7C06E"/>
<path d="M218.716 72.1087C218.6 72.9606 217.017 73.4515 215.178 73.2061C213.34 72.9606 211.934 72.075 212.05 71.2231C212.165 70.3712 213.749 69.8803 215.587 70.1257C217.426 70.3712 218.85 71.2616 218.716 72.1087Z" fill="#A6A6A6"/>
<path d="M212.857 71.2569C213.007 70.8478 214.609 70.3809 216.361 70.8574L212.857 71.2569Z" fill="white"/>
<path d="M153.793 60.4579C157.443 57.6784 161.912 56.1902 166.499 56.2272C162.168 57.4979 158 58.8744 153.793 60.4579Z" fill="white"/>
<path d="M135.768 81.6985C137.924 73.088 145.124 64.7807 153.051 60.9062C145.629 66.2006 139.406 73.3046 135.768 81.6985Z" fill="white"/>
<path opacity="0.1" d="M138.727 89.3584C135.165 109.366 148.151 128.618 167.682 132.271C187.213 135.925 205.994 122.612 209.555 102.609C213.117 82.6058 200.127 63.344 180.595 59.6957C177.658 59.1429 174.663 58.9698 171.682 59.1808C155.64 60.3118 141.74 72.4406 138.727 89.3584Z" fill="#EBEBEB"/>
<g opacity="0.2">
<path d="M210.109 97.682L175.796 132.817C173.079 132.942 170.356 132.752 167.682 132.249C166.524 132.035 165.379 131.76 164.25 131.426L208.742 85.8516C209.829 89.6962 210.29 93.6907 210.109 97.682Z" fill="white"/>
<path d="M178.757 59.3999L138.438 100.715C137.961 96.9359 138.058 93.1063 138.727 89.3562C138.891 88.4225 139.097 87.4936 139.329 86.5839L164.943 60.3192C167.147 59.72 169.404 59.3379 171.682 59.1785C174.041 59.0087 176.412 59.0829 178.757 59.3999Z" fill="white"/>
<path d="M204.262 75.8186L154.452 126.837C153.314 126.08 152.223 125.255 151.184 124.368L201.86 72.4688C202.725 73.5378 203.527 74.6563 204.262 75.8186Z" fill="white"/>
<path d="M188.676 62.225L141.21 110.837C140.614 109.454 140.103 108.037 139.68 106.592L184.532 60.6367C185.945 61.0796 187.329 61.6101 188.676 62.225Z" fill="white"/>
<path d="M209.647 102.098C209.623 102.266 209.589 102.439 209.56 102.608C209.512 102.906 209.454 103.205 209.392 103.493L181.476 132.102C181.029 132.198 180.571 132.285 180.109 132.362L209.647 102.098Z" fill="white"/>
<path d="M199.025 69.3387L148.142 121.473C147.959 121.281 147.781 121.084 147.607 120.886L198.457 68.7852L199.025 69.3387Z" fill="white"/>
</g>
</svg>
