<svg width="69" height="69" viewBox="0 0 69 69" fill="none" xmlns="http://www.w3.org/2000/svg">
<g id="fluent:certificate-24-filled">
<path id="Vector" d="M13.6557 8.625C11.5589 8.625 9.54788 9.45798 8.06517 10.9407C6.58246 12.4234 5.74948 14.4344 5.74948 16.5312V31.625C8.03698 28.575 11.4424 26.5586 15.2166 26.0195C18.9907 25.4803 22.8245 26.4625 25.8745 28.75C28.9245 31.0375 30.9408 34.4429 31.48 38.2171C32.0192 41.9912 31.037 45.825 28.7495 48.875V51.75H55.3432C57.4401 51.75 59.4511 50.917 60.9338 49.4343C62.4165 47.9516 63.2495 45.9406 63.2495 43.8438V16.5312C63.2495 14.4344 62.4165 12.4234 60.9338 10.9407C59.4511 9.45798 57.4401 8.625 55.3432 8.625H13.6557ZM19.4057 20.125H49.5932C50.1651 20.125 50.7136 20.3522 51.1179 20.7566C51.5223 21.1609 51.7495 21.7094 51.7495 22.2812C51.7495 22.8531 51.5223 23.4016 51.1179 23.8059C50.7136 24.2103 50.1651 24.4375 49.5932 24.4375H19.4057C18.8339 24.4375 18.2854 24.2103 17.881 23.8059C17.4767 23.4016 17.2495 22.8531 17.2495 22.2812C17.2495 21.7094 17.4767 21.1609 17.881 20.7566C18.2854 20.3522 18.8339 20.125 19.4057 20.125ZM34.4995 36.6562C34.4995 36.0844 34.7267 35.5359 35.131 35.1316C35.5354 34.7272 36.0839 34.5 36.6557 34.5H49.5932C50.1651 34.5 50.7136 34.7272 51.1179 35.1316C51.5223 35.5359 51.7495 36.0844 51.7495 36.6562C51.7495 37.2281 51.5223 37.7766 51.1179 38.1809C50.7136 38.5853 50.1651 38.8125 49.5932 38.8125H36.6557C36.0839 38.8125 35.5354 38.5853 35.131 38.1809C34.7267 37.7766 34.4995 37.2281 34.4995 36.6562ZM17.2495 28.75C14.1991 28.75 11.2737 29.9618 9.11674 32.1187C6.9598 34.2756 5.74805 37.2011 5.74805 40.2514C5.74805 43.3018 6.9598 46.2272 9.11674 48.3842C11.2737 50.5411 14.1991 51.7529 17.2495 51.7529C20.2999 51.7529 23.2253 50.5411 25.3822 48.3842C27.5392 46.2272 28.7509 43.3018 28.7509 40.2514C28.7509 37.2011 27.5392 34.2756 25.3822 32.1187C23.2253 29.9618 20.2999 28.75 17.2495 28.75ZM25.8745 51.7529C23.4739 53.5584 20.4867 54.6279 17.2495 54.6279C14.1391 54.6341 11.1113 53.6269 8.62448 51.7586V61.0909C8.62448 62.7296 10.3639 63.7359 11.7582 63.0142L12.017 62.8561L17.2495 59.1991L22.482 62.8561C22.7842 63.0671 23.1354 63.1971 23.5021 63.2338C23.8689 63.2704 24.2389 63.2124 24.5768 63.0654C24.9148 62.9183 25.2094 62.6871 25.4325 62.3938C25.6557 62.1004 25.7999 61.7548 25.8515 61.3899L25.8745 61.0909L25.8774 51.75L25.8745 51.7529Z" fill="#F4D48E"/>
</g>
</svg>
