<svg width="8" height="13" viewBox="0 0 8 13" fill="none" xmlns="http://www.w3.org/2000/svg">
<g id="Frame 81">
<path id="Vector" d="M0.340485 0.342019C0.232552 0.44973 0.146923 0.57767 0.0884982 0.718516C0.0300734 0.859362 0 1.01035 0 1.16283C0 1.31531 0.0300734 1.4663 0.0884982 1.60714C0.146923 1.74799 0.232552 1.87593 0.340485 1.98364L4.85786 6.50101L0.340485 11.0184C0.122792 11.2361 0.000492989 11.5313 0.000492989 11.8392C0.000492989 12.1471 0.122792 12.4423 0.340485 12.66C0.558177 12.8777 0.853432 13 1.1613 13C1.46916 13 1.76441 12.8777 1.98211 12.66L7.32612 7.316C7.43405 7.20829 7.51968 7.08035 7.5781 6.93951C7.63653 6.79866 7.6666 6.64768 7.6666 6.49519C7.6666 6.34271 7.63653 6.19172 7.5781 6.05088C7.51968 5.91003 7.43405 5.78209 7.32612 5.67438L1.98211 0.330376C1.53968 -0.112047 0.794551 -0.112047 0.340485 0.342019Z" fill="#14446C"/>
</g>
</svg>
