<svg width="16" height="17" viewBox="0 0 16 17" fill="none" xmlns="http://www.w3.org/2000/svg">
<path d="M12.0161 5.19531C11.2353 4.41751 10.2418 3.8882 9.16073 3.67408C8.07965 3.45995 6.95939 3.57059 5.94109 3.99206C4.92279 4.41352 4.05202 5.12695 3.43848 6.04245C2.82495 6.95795 2.49612 8.03457 2.49341 9.13664" stroke="#1C5D95" stroke-width="0.8125" stroke-miterlimit="10" stroke-linecap="round"/>
<path d="M11.5666 2.33331L12.1213 4.58131C12.1468 4.67928 12.1522 4.7814 12.1372 4.88152C12.1221 4.98163 12.0869 5.07766 12.0337 5.16378C11.9805 5.2499 11.9104 5.32434 11.8276 5.38258C11.7448 5.44083 11.651 5.48167 11.552 5.50265L9.30396 6.06465" stroke="#1C5D95" stroke-width="0.8125" stroke-linecap="round" stroke-linejoin="round"/>
<path d="M3.98413 11.8047C4.76486 12.5827 5.75843 13.1122 6.83962 13.3265C7.9208 13.5407 9.04122 13.4301 10.0597 13.0086C11.0781 12.5872 11.949 11.8736 12.5625 10.958C13.1761 10.0423 13.5049 8.96555 13.5075 7.86334" stroke="#1C5D95" stroke-width="0.8125" stroke-miterlimit="10" stroke-linecap="round"/>
<path d="M4.43344 14.6666L3.87877 12.4186C3.85333 12.3206 3.84802 12.2185 3.86315 12.1184C3.87829 12.0182 3.91356 11.9222 3.96683 11.8361C4.0201 11.75 4.09027 11.6756 4.17311 11.6174C4.25594 11.5591 4.34972 11.5183 4.44877 11.4973L6.69611 10.9353" stroke="#1C5D95" stroke-width="0.8125" stroke-linecap="round" stroke-linejoin="round"/>
</svg>
