<svg width="36" height="36" viewBox="0 0 36 36" fill="none" xmlns="http://www.w3.org/2000/svg">
<g id="Layer_1" clip-path="url(#clip0_1391_8280)">
<g id="Group">
<path id="Vector" d="M9.42969 18.009C9.42969 12.8507 9.42969 7.71044 9.42969 2.55218C9.42969 1.50974 9.83172 0.718931 10.8185 0.287578C11.1109 0.161766 11.4581 0.0898743 11.787 0.0898743C17.3241 0.0898743 22.8612 0.0898743 28.3982 0.0898743C28.6358 0.0898743 28.9282 0.215686 29.0926 0.377443C31.2855 2.51623 33.4601 4.65503 35.653 6.79382C35.9089 7.02747 35.9454 7.31504 35.9454 7.62058C35.9454 14.4324 35.9454 21.2621 35.9454 28.0739C35.9454 29.8532 35.9454 31.6326 35.9454 33.3939C35.9454 34.9755 35.0134 35.8922 33.4053 35.8922C26.2784 35.8922 19.1332 35.8922 12.0063 35.8922C10.3982 35.8922 9.46624 34.9755 9.46624 33.3939C9.46624 28.2536 9.46624 23.1133 9.46624 17.973L9.42969 18.009ZM27.9779 1.2042C27.7952 1.2042 27.6855 1.2042 27.5759 1.2042C22.3678 1.2042 17.1596 1.2042 11.9332 1.2042C10.983 1.2042 10.5444 1.63556 10.5444 2.55218C10.5444 12.8328 10.5444 23.1313 10.5444 33.4119C10.5444 34.3465 10.983 34.7778 11.915 34.7778C19.0601 34.7778 26.2053 34.7778 33.3505 34.7778C34.3373 34.7778 34.7393 34.3645 34.7393 33.4119C34.7393 25.0365 34.7393 16.661 34.7393 8.30355V7.89017C34.5566 7.89017 34.4287 7.89017 34.3008 7.89017C33.0033 7.89017 31.6876 7.89017 30.3901 7.89017C28.8916 7.89017 27.9414 6.9376 27.9414 5.48179C27.9414 4.90665 27.9414 4.33151 27.9414 3.75637C27.9414 2.92961 27.9414 2.08488 27.9414 1.22218L27.9779 1.2042ZM33.7708 6.75787C32.2175 5.23016 30.6459 3.70246 29.1292 2.19272C29.1292 3.28908 29.1292 4.4753 29.1292 5.66152C29.1292 6.25463 29.6043 6.7399 30.2256 6.7399C31.4317 6.75787 32.6378 6.7399 33.7708 6.7399V6.75787Z" fill="black"/>
<path id="Vector_2" d="M33.369 36H11.9518C10.3071 36 9.32031 35.0295 9.32031 33.4119C9.32031 28.2716 9.32031 23.1313 9.32031 17.991V13.5696C9.32031 9.88517 9.32031 6.21867 9.32031 2.5342C9.32031 1.4019 9.79544 0.611083 10.764 0.197703C11.0564 0.0718922 11.4218 0 11.769 0C17.6168 0 23.0442 0 28.3802 0C28.636 0 28.9467 0.125811 29.1294 0.305542C30.5 1.63555 31.8888 3.0015 33.2228 4.31353C34.0452 5.12232 34.8675 5.91313 35.6716 6.72192C35.9274 6.97354 35.9822 7.26111 35.9822 7.62057C35.9822 12.7429 35.9822 17.8472 35.9822 22.9695V28.0919C35.9822 29.8712 35.9822 31.6505 35.9822 33.4119C35.9822 35.0295 34.9954 36 33.3508 36H33.369ZM19.5355 0.17973C17.0137 0.17973 14.4371 0.17973 11.7873 0.17973C11.4584 0.17973 11.1294 0.251623 10.8553 0.359461C9.95991 0.754868 9.52133 1.45582 9.52133 2.5342C9.52133 6.21867 9.52133 9.88517 9.52133 13.5696V17.991C9.52133 23.1313 9.52133 28.2716 9.52133 33.4119C9.52133 34.9396 10.4168 35.8203 11.9701 35.8203H33.369C34.9223 35.8203 35.8178 34.9396 35.8178 33.4119C35.8178 31.6326 35.8178 29.8532 35.8178 28.0919V22.9695C35.8178 17.8472 35.8178 12.7429 35.8178 7.62057C35.8178 7.29705 35.7812 7.0634 35.5619 6.84773C34.7396 6.03894 33.9173 5.24813 33.1132 4.43934C31.7792 3.12731 30.3904 1.76136 29.0198 0.431353C28.8736 0.287569 28.5995 0.17973 28.3985 0.17973C25.4929 0.17973 22.569 0.17973 19.5538 0.17973H19.5355ZM33.3873 34.8857H11.9335C10.9284 34.8857 10.4716 34.4184 10.4716 33.4299V2.57014C10.4716 1.58163 10.9467 1.1323 11.9518 1.1323H28.0878V5.49975C28.0878 6.91962 29.0015 7.81827 30.4452 7.81827C31.3406 7.81827 32.236 7.81827 33.1315 7.81827H34.8858V33.4299C34.8858 34.4363 34.4289 34.8857 33.3873 34.8857ZM11.9335 1.29406C11.0198 1.29406 10.636 1.67149 10.636 2.55217V33.4119C10.636 34.3105 11.0198 34.688 11.9152 34.688H33.3508C34.2827 34.688 34.6665 34.3105 34.6665 33.4119V7.98003H33.0949C32.1995 7.98003 31.3041 7.98003 30.4086 7.98003C28.8736 7.98003 27.8685 6.99151 27.8685 5.48178C27.8685 5.10434 27.8685 4.70894 27.8685 4.3315V1.29406H11.9335ZM31.7426 6.84773C31.2492 6.84773 30.7376 6.84773 30.2259 6.84773C29.5498 6.84773 29.0381 6.32651 29.0381 5.67948C29.0381 4.83475 29.0381 3.97204 29.0381 3.14528C29.0381 2.82177 29.0381 2.49825 29.0381 2.19271V1.97703L30.3173 3.23515C31.4868 4.38542 32.6746 5.55367 33.8442 6.70394L34.0086 6.84773H33.7893C33.1315 6.84773 32.4553 6.84773 31.7609 6.84773H31.7426ZM29.2208 2.40839C29.2208 2.64204 29.2208 2.89366 29.2208 3.14528C29.2208 3.97204 29.2208 4.81677 29.2208 5.67948C29.2208 6.23665 29.6594 6.668 30.2259 6.668C31.0848 6.668 31.9437 6.668 32.7843 6.668C33.0401 6.668 33.2959 6.668 33.5518 6.668C32.4371 5.57164 31.3041 4.45731 30.1711 3.34299L29.2025 2.39041L29.2208 2.40839Z" fill="black"/>
</g>
<g id="Group_2">
<path id="Vector_3" d="M10.6533 28.3255C13.7233 28.3255 16.7934 28.3255 19.8634 28.3255C20.6492 28.3255 20.8502 28.1098 20.8502 27.337C20.8502 24.0839 20.8502 20.8307 20.8502 17.5776C20.8502 16.7868 20.6492 16.5711 19.8452 16.5711C13.7233 16.5711 7.60151 16.5711 1.47969 16.5711C0.675625 16.5711 0.474609 16.7688 0.474609 17.5776C0.474609 20.8307 0.474609 24.0839 0.474609 27.337C0.474609 28.1098 0.693899 28.3255 1.46141 28.3255C4.53146 28.3255 7.60151 28.3255 10.6716 28.3255H10.6533Z" fill="white" stroke="black" stroke-width="0.5" stroke-miterlimit="10"/>
<path id="Vector_4" d="M8.82617 25.5037V19.5726C9.95917 19.6266 11.0556 19.6086 12.1521 19.7703C12.9561 19.8782 13.4312 20.5072 13.6688 21.2621C13.9795 22.2686 13.9977 23.2931 13.5409 24.2816C13.2302 24.9825 12.6637 25.4498 11.9145 25.5037C10.9094 25.5756 9.88607 25.5217 8.82617 25.5217V25.5037ZM10.0505 24.5512C10.5257 24.5512 11.0008 24.5871 11.4576 24.5512C12.0607 24.4972 12.4079 24.2276 12.4993 23.6345C12.5724 23.0594 12.6089 22.4663 12.5541 21.8912C12.4993 21.1902 12.1155 20.7768 11.4942 20.7049C11.0191 20.651 10.5439 20.7049 10.0505 20.7049V24.5691V24.5512Z" fill="black"/>
<path id="Vector_5" d="M3.21484 19.5906C4.32956 19.6266 5.42601 19.6445 6.50418 19.7344C6.76002 19.7524 7.05241 19.9321 7.25342 20.1118C7.87474 20.669 7.91129 21.3879 7.692 22.1248C7.49099 22.8258 6.96104 23.2212 6.2118 23.2931C5.62703 23.347 5.06053 23.347 4.42094 23.3829V25.5756H3.21484V19.6086V19.5906ZM4.42094 22.3405C4.93261 22.3045 5.38946 22.3045 5.84632 22.2506C6.26662 22.1967 6.54073 21.8732 6.54073 21.4778C6.54073 21.0824 6.26662 20.7049 5.84632 20.669C5.37119 20.633 4.91434 20.669 4.42094 20.669V22.3405Z" fill="black"/>
<path id="Vector_6" d="M16.1541 22.0529C16.5744 22.0529 16.9764 22.0529 17.3784 22.0529C17.7804 22.0529 18.1825 22.0529 18.6028 22.0529V23.0414H16.1358V25.5397H14.9297V19.6445H19.0048V20.633H16.1358V22.0529H16.1541Z" fill="black"/>
</g>
</g>
<defs>
<clipPath id="clip0_1391_8280">
<rect width="36" height="36" fill="white"/>
</clipPath>
</defs>
</svg>
