<svg width="33" height="33" viewBox="0 0 33 33" fill="none" xmlns="http://www.w3.org/2000/svg">
<g id="Group">
<path id="Vector" d="M24.2324 32.9809H1.80033C1.80033 32.9809 1.76432 32.9449 1.74632 32.9449C0.522095 32.5488 0 31.8467 0 30.5505C0 21.1527 0 11.755 0 2.35733C0 0.899065 0.918167 -0.00109863 2.37643 -0.00109863C9.46972 -0.00109863 16.563 -0.00109863 23.6743 -0.00109863C25.1326 -0.00109863 26.0327 0.917068 26.0327 2.37533C26.0327 5.36388 26.0327 8.35242 26.0327 11.323V11.647C26.0327 11.647 26.1047 11.683 26.1227 11.701C26.1948 11.611 26.2488 11.503 26.3388 11.413C27.239 10.5128 28.1211 9.59465 29.0393 8.73049C30.3355 7.50627 32.4059 8.10037 32.91 9.81069C32.928 9.8827 32.964 9.97271 33 10.0447V10.8189C32.82 11.557 32.3339 12.0971 31.8118 12.6012C29.9574 14.4375 28.1391 16.2739 26.2848 18.1102C26.1047 18.2902 26.0327 18.4703 26.0327 18.7223C26.0327 22.701 26.0327 26.6978 26.0327 30.6765C26.0327 31.8287 25.4386 32.6028 24.3404 32.9269C24.3044 32.9269 24.2684 32.9629 24.2324 32.9809ZM3.88871 29.1102C4.03273 29.1102 4.14075 29.1102 4.26678 29.1102C6.28314 29.1102 8.29951 29.1102 10.3159 29.1102C10.784 29.1102 11.09 29.3442 11.09 29.7403C11.09 30.1364 10.802 30.4064 10.3159 30.4064C8.01146 30.4064 5.70704 30.4064 3.38462 30.4064C2.80851 30.4064 2.59247 30.1724 2.59247 29.5963C2.59247 20.8467 2.59247 12.1151 2.59247 3.36551C2.59247 2.78941 2.80851 2.55537 3.38462 2.55537C4.64484 2.55537 5.92308 2.55537 7.18331 2.55537C7.29133 2.55537 7.41735 2.55537 7.52537 2.55537V1.25913C7.39934 1.25913 7.27332 1.25913 7.1653 1.25913C5.58101 1.25913 4.01473 1.25913 2.43044 1.25913C1.62029 1.25913 1.31424 1.58319 1.31424 2.39334C1.31424 11.773 1.31424 21.1527 1.31424 30.5144C1.31424 31.3426 1.62029 31.6667 2.44845 31.6667C9.50573 31.6667 16.563 31.6667 23.6203 31.6667C24.4484 31.6667 24.7725 31.3426 24.7725 30.5325C24.7725 27.0398 24.7725 23.5292 24.7725 20.0365V19.6945C24.4304 19.8385 24.1424 20.0005 23.8363 20.1086C23.5663 20.1986 23.4763 20.3426 23.4763 20.6487C23.4763 23.6192 23.4763 26.5897 23.4763 29.5783C23.4763 30.1904 23.2602 30.4064 22.6481 30.4064C20.3797 30.4064 18.0933 30.4064 15.8249 30.4064C15.7349 30.4064 15.6268 30.4064 15.5368 30.4064C15.2128 30.3524 14.9787 30.0824 14.9787 29.7583C14.9787 29.4523 15.2128 29.1822 15.5368 29.1462C15.6448 29.1462 15.7529 29.1462 15.8609 29.1462C17.8592 29.1462 19.8576 29.1462 21.856 29.1462C21.964 29.1462 22.072 29.1462 22.18 29.1462V20.8827C21.5859 21.1527 21.0278 21.3868 20.4517 21.6568C20.1277 21.8009 19.8216 21.8909 19.5336 21.6208C19.2455 21.3328 19.3355 21.0267 19.4795 20.7027C20.0016 19.5325 20.5237 18.3802 21.0278 17.21C21.2439 16.7059 21.5139 16.2379 21.946 15.8778C22.144 15.7158 22.18 15.5357 22.18 15.2837C22.18 11.629 22.18 7.95635 22.18 4.30168V3.92361H18.5254C18.3993 5.12983 17.6432 5.93998 16.563 5.95798C14.2046 5.95798 11.8462 5.95798 9.46972 5.95798C8.58756 5.95798 7.81342 5.30987 7.59738 4.46371C7.56137 4.28368 7.52537 4.10365 7.50736 3.94162H3.8707V29.1822L3.88871 29.1102ZM17.2111 1.31314H8.8216C8.8216 2.14129 8.8216 2.96944 8.8216 3.77959C8.8216 4.3737 9.09165 4.64375 9.68576 4.64375C10.874 4.64375 12.0442 4.64375 13.2324 4.64375C14.2946 4.64375 15.3568 4.64375 16.419 4.64375C16.8691 4.64375 17.1931 4.3917 17.2111 3.99563C17.2291 3.11347 17.2111 2.2133 17.2111 1.31314ZM18.5254 2.57337H18.9034C20.0917 2.57337 21.2799 2.57337 22.4861 2.57337C23.3142 2.57337 23.4763 2.7354 23.4763 3.54555C23.4763 7.00217 23.4763 10.4588 23.4763 13.9154V14.3295C23.8903 13.9154 24.2324 13.5734 24.5565 13.2133C24.6645 13.0873 24.7545 12.9072 24.7545 12.7452C24.7545 9.27059 24.7545 5.81396 24.7545 2.33933C24.7545 1.6192 24.4124 1.27713 23.6923 1.27713C22.09 1.27713 20.4697 1.27713 18.8674 1.27713C18.7594 1.27713 18.6514 1.27713 18.5434 1.27713V2.55537L18.5254 2.57337ZM24.2864 18.2002C26.2128 16.2739 28.1391 14.3475 30.0295 12.4572C29.5794 11.9891 29.0933 11.521 28.6252 11.0529C26.7169 12.9613 24.7905 14.8876 22.8822 16.796C23.3322 17.246 23.8183 17.7321 24.2864 18.2002ZM31.0376 11.521C31.4697 11.1429 31.8478 10.7649 31.6678 10.1527C31.5597 9.73867 31.2897 9.48663 30.8756 9.39661C30.2635 9.27059 29.9034 9.63065 29.5794 10.0447C30.0655 10.5488 30.5516 11.0349 31.0556 11.521H31.0376ZM21.2259 19.8385C21.928 19.5325 22.5401 19.2624 23.1162 18.9924C22.7561 18.6323 22.4321 18.2902 22.072 17.9302C21.802 18.5243 21.5319 19.1364 21.2259 19.8385Z" fill="black"/>
<path id="Vector_2" d="M11.0904 10.4589C11.0904 11.107 11.0904 11.7371 11.0904 12.3853C11.0904 12.8894 10.8564 13.1414 10.3523 13.1414C9.03806 13.1414 7.74183 13.1414 6.42759 13.1414C5.9415 13.1414 5.68945 12.8894 5.68945 12.4213C5.68945 11.107 5.68945 9.77479 5.68945 8.46055C5.68945 7.99246 5.9415 7.74042 6.40958 7.74042C7.74183 7.74042 9.07407 7.74042 10.4063 7.74042C10.8564 7.74042 11.1084 7.99246 11.1084 8.46055C11.1084 9.12667 11.1084 9.79279 11.1084 10.4589H11.0904ZM6.98569 9.03665V11.8452H9.7762V9.03665H6.98569Z" fill="black"/>
<path id="Vector_3" d="M8.35436 20.2345C7.70624 20.2345 7.07613 20.2345 6.42801 20.2345C5.92392 20.2345 5.67188 19.9825 5.67188 19.4784C5.67188 18.1641 5.67188 16.8679 5.67188 15.5537C5.67188 15.0676 5.92392 14.8155 6.41001 14.8155C7.72425 14.8155 9.05649 14.8155 10.3707 14.8155C10.8388 14.8155 11.0909 15.0676 11.0909 15.5357C11.0909 16.8499 11.0909 18.1821 11.0909 19.4964C11.0909 19.9825 10.8388 20.2345 10.3527 20.2345C9.6866 20.2345 9.02048 20.2345 8.35436 20.2345ZM6.98611 16.1298V18.9203H9.77662V16.1298H6.98611Z" fill="black"/>
<path id="Vector_4" d="M8.35436 27.3099C7.72425 27.3099 7.09413 27.3099 6.46402 27.3099C5.90592 27.3099 5.67188 27.0759 5.67188 26.5358C5.67188 25.2575 5.67188 23.9613 5.67188 22.6831C5.67188 22.143 5.90592 21.9089 6.46402 21.9089C7.74225 21.9089 9.02048 21.9089 10.2987 21.9089C10.8568 21.9089 11.0909 22.143 11.0909 22.7191C11.0909 23.9793 11.0909 25.2575 11.0909 26.5178C11.0909 27.1119 10.8748 27.3279 10.2627 27.3279C9.63259 27.3279 9.00248 27.3279 8.37237 27.3279L8.35436 27.3099ZM6.96811 25.9957H9.75862V23.2052H6.96811V25.9957Z" fill="black"/>
<path id="Vector_5" d="M15.392 24.6094C15.0319 24.2673 14.7258 23.9973 14.4198 23.6912C14.0777 23.3672 14.0597 22.9711 14.3118 22.701C14.5998 22.413 14.9779 22.449 15.32 22.7911C15.608 23.0791 15.8781 23.3852 16.2021 23.7092C16.5622 23.3492 16.8862 23.0251 17.2103 22.719C17.4083 22.521 17.6784 22.431 17.9124 22.575C18.0925 22.683 18.2725 22.8811 18.2905 23.0791C18.3085 23.2591 18.2005 23.5112 18.0745 23.6732C17.8044 23.9973 17.4623 24.2853 17.1203 24.6274C17.4803 24.9694 17.8044 25.2755 18.1285 25.5996C18.3445 25.8156 18.4165 26.0857 18.2545 26.3377C18.1285 26.4997 17.8944 26.6618 17.6964 26.6978C17.5344 26.7158 17.3003 26.5897 17.1743 26.4637C16.8502 26.1757 16.5802 25.8516 16.2381 25.4915C15.8781 25.8696 15.572 26.2117 15.2299 26.5177C14.9959 26.7518 14.6898 26.7698 14.4378 26.6077C14.1857 26.4637 14.0597 26.1577 14.1677 25.8876C14.2218 25.7616 14.3118 25.6176 14.4198 25.5275C14.7078 25.2395 15.0319 24.9514 15.392 24.6274V24.6094Z" fill="black"/>
<path id="Vector_6" d="M15.5008 10.9988C16.293 10.2067 17.0311 9.45053 17.7872 8.7124C18.2013 8.29832 18.5614 8.22631 18.8674 8.53236C19.1735 8.83842 19.1195 9.19849 18.7054 9.61256C17.8413 10.4767 16.9591 11.3589 16.0949 12.223C15.6809 12.6371 15.3568 12.6371 14.9427 12.223C14.5287 11.809 14.1146 11.4129 13.7185 10.9988C13.3944 10.6568 13.3584 10.2787 13.6465 10.0086C13.9345 9.72058 14.2946 9.75659 14.6367 10.0986C14.9247 10.3867 15.2128 10.6748 15.5188 11.0168L15.5008 10.9988Z" fill="black"/>
<path id="Vector_7" d="M15.4836 18.0922C16.2578 17.318 16.9959 16.5799 17.716 15.8418C17.806 15.7517 17.8961 15.6617 17.9861 15.5717C18.2561 15.3557 18.5982 15.3737 18.8322 15.5897C19.0663 15.8238 19.1023 16.1658 18.9042 16.4359C18.8502 16.5259 18.7602 16.5979 18.6882 16.6699C17.824 17.5341 16.9779 18.3802 16.1137 19.2444C15.6276 19.7305 15.3396 19.7305 14.8355 19.2444C14.4934 18.9023 14.1514 18.5602 13.8093 18.2182C13.3412 17.7501 13.2692 17.408 13.5753 17.084C13.8993 16.7599 14.2414 16.8319 14.7275 17.318C14.9615 17.5521 15.1956 17.8221 15.4476 18.0922H15.4836Z" fill="black"/>
<path id="Vector_8" d="M13.6638 29.7764C13.6638 30.1364 13.3577 30.4245 12.9977 30.4065C12.6556 30.4065 12.3676 30.1004 12.3856 29.7584C12.3856 29.3983 12.6916 29.1103 13.0517 29.1283C13.3937 29.1283 13.6818 29.4343 13.6638 29.7764Z" fill="black"/>
</g>
</svg>
