<svg width="26" height="36" viewBox="0 0 26 36" fill="none" xmlns="http://www.w3.org/2000/svg">
<path d="M15.711 8C16.1286 8.10989 16.5462 8.15385 16.9418 8.30769C18.5682 8.94506 19.5572 10.1319 19.8869 11.8462C19.9748 12.2418 19.9528 12.6813 19.9748 13.0989C20.4583 12.9671 20.9638 12.967 21.4693 13.1429C22.5242 13.5385 23.1396 14.5934 22.9418 15.7583C22.766 16.8132 21.8209 17.6264 20.722 17.6484C20.5022 17.6484 20.3484 17.5385 20.3264 17.3627C20.3044 17.1649 20.4143 17.011 20.6561 16.989C21.0737 16.9451 21.4473 16.8352 21.755 16.5495C22.2605 16.066 22.4363 15.4945 22.2165 14.8352C22.0187 14.1758 21.5572 13.8022 20.8759 13.6923C20.4803 13.6264 20.1066 13.6923 19.755 13.9121C19.6011 14 19.4473 14.0879 19.2715 13.9561C19.1176 13.8242 19.1396 13.6703 19.1836 13.4945C19.733 11.2967 18.1945 9.07693 15.9308 8.7033C14.0407 8.39561 12.1725 9.51649 11.5352 11.3407C11.3594 11.8681 11.2055 11.9121 10.744 11.5824C10.0187 11.0769 9.24946 10.989 8.45825 11.3846C7.68901 11.7802 7.27143 12.4396 7.24945 13.2967C7.24945 13.5385 7.31539 13.7802 7.38132 14.022C7.44725 14.2857 7.42528 14.4396 7.24945 14.5275C7.07363 14.6154 6.91978 14.5495 6.76593 14.3517C6.06263 13.4286 4.80988 13.4066 4.10658 14.3077C3.71098 14.7912 3.64504 15.3627 3.8868 15.9561C4.12856 16.5495 4.5901 16.8792 5.20549 16.9671C5.2934 16.9671 5.38131 16.9671 5.44725 17.011C5.62307 17.055 5.71099 17.1868 5.71099 17.3407C5.71099 17.5165 5.57912 17.6484 5.38131 17.6484C4.8978 17.6484 4.45823 17.5165 4.06263 17.2528C3.05164 16.5715 2.74394 15.2088 3.35933 14.1758C3.97472 13.1209 5.2934 12.7033 6.39231 13.2308C6.43626 13.2528 6.5022 13.2747 6.56813 13.3187C6.65604 12.2418 7.11758 11.3846 8.08462 10.8572C9.02968 10.3297 9.99671 10.3956 10.9638 10.9231C11.1176 10.6593 11.2275 10.3956 11.4033 10.1539C12.1945 8.94506 13.3154 8.24176 14.766 8.04396C14.8099 8.04396 14.8759 8.02198 14.9198 8C15.1835 8 15.4693 8 15.733 8H15.711Z" fill="black"/>
<path d="M13.0085 19.9999C11.1623 19.9999 9.29418 19.9999 7.44802 19.9999C6.89857 19.9999 6.52494 19.7361 6.39307 19.2746C6.39307 19.2306 6.3711 19.1647 6.3711 19.1208C6.3711 18.5933 6.34912 18.0658 6.3711 17.5383C6.39307 17.0328 6.81066 16.6812 7.31615 16.6592C7.36011 16.6592 7.40407 16.6592 7.44802 16.6592C11.1623 16.6592 14.8766 16.6592 18.5689 16.6592C19.1184 16.6592 19.492 16.9229 19.6239 17.3845C19.6459 17.4944 19.6678 17.5823 19.6678 17.6922C19.6678 18.1098 19.6678 18.5493 19.6678 18.9669C19.6459 19.6043 19.2283 19.9999 18.5909 19.9999C17.7777 19.9999 16.9645 19.9999 16.1513 19.9999C15.0964 19.9999 14.0634 19.9999 13.0085 19.9999ZM13.0085 19.3405C14.8546 19.3405 16.7228 19.3405 18.5689 19.3405C18.8766 19.3405 19.0085 19.2306 19.0085 18.923C19.0085 18.5273 19.0085 18.1317 19.0085 17.7581C19.0085 17.4724 18.8766 17.3405 18.5909 17.3405C14.8766 17.3405 11.1623 17.3405 7.44802 17.3405C7.14033 17.3405 7.03044 17.4724 7.03044 17.7581C7.03044 18.1098 7.03044 18.4834 7.03044 18.835C7.03044 19.2306 7.11835 19.3186 7.53593 19.3186C9.36012 19.3186 11.2063 19.3186 13.0305 19.3186L13.0085 19.3405Z" fill="black"/>
<path d="M13.0305 24.6593C14.8766 24.6593 16.7228 24.6593 18.5689 24.6593C19.1184 24.6593 19.492 24.9011 19.6239 25.3626C19.6239 25.4066 19.6459 25.4725 19.6459 25.5165C19.6459 26.0439 19.6678 26.5494 19.6459 27.0769C19.6239 27.5824 19.2063 27.934 18.7008 27.978C18.6569 27.978 18.5909 27.978 18.547 27.978C14.8546 27.978 11.1403 27.978 7.44802 27.978C6.89857 27.978 6.52494 27.7143 6.39307 27.2527C6.39307 27.2088 6.3711 27.1428 6.3711 27.0989C6.3711 26.5714 6.34912 26.0219 6.3711 25.4945C6.39307 25.011 6.81066 24.6593 7.29418 24.6373C7.38209 24.6373 7.47 24.6373 7.55791 24.6373C9.3821 24.6373 11.2063 24.6373 13.0524 24.6373L13.0305 24.6593ZM13.0085 27.3187C14.8546 27.3187 16.7228 27.3187 18.5689 27.3187C18.8986 27.3187 19.0305 27.2088 19.0305 26.8791C19.0305 26.5055 19.0305 26.1318 19.0305 25.7362C19.0305 25.4285 18.9206 25.3186 18.6129 25.3186C14.8986 25.3186 11.1843 25.3186 7.47 25.3186C7.16231 25.3186 7.05242 25.4285 7.05242 25.7362C7.05242 26.0879 7.05242 26.4615 7.05242 26.8132C7.05242 27.2088 7.16231 27.3187 7.55791 27.3187C9.3821 27.3187 11.2063 27.3187 13.0524 27.3187H13.0085Z" fill="black"/>
<path d="M13.0085 24.0002C11.1623 24.0002 9.31616 24.0002 7.49198 24.0002C7.05242 24.0002 6.67879 23.8683 6.48099 23.4507C6.41505 23.3188 6.3711 23.165 6.3711 23.0331C6.3711 22.5716 6.34912 22.11 6.3711 21.6485C6.41505 21.0551 6.78868 20.7034 7.38209 20.6815C7.42604 20.6815 7.47 20.6815 7.49198 20.6815C11.1843 20.6815 14.8546 20.6815 18.547 20.6815C18.9865 20.6815 19.3602 20.8133 19.558 21.2309C19.6239 21.3628 19.6678 21.5166 19.6678 21.6485C19.6678 22.11 19.6898 22.5716 19.6678 23.0331C19.6239 23.6485 19.2283 24.0002 18.5689 24.0002C17.8656 24.0002 17.1404 24.0002 16.4371 24.0002C15.2942 24.0002 14.1513 24.0002 13.0085 24.0002ZM13.0085 21.3188C11.1623 21.3188 9.31616 21.3188 7.49198 21.3188C7.11835 21.3188 7.00846 21.4287 7.00846 21.8023C7.00846 22.154 7.00846 22.5056 7.00846 22.8573C7.00846 23.2089 7.11835 23.3188 7.47 23.3188C7.88758 23.3188 8.30517 23.3188 8.72275 23.3188C11.9755 23.3188 15.2502 23.3188 18.503 23.3188C18.9206 23.3188 19.0085 23.2309 19.0085 22.7914C19.0085 22.4617 19.0085 22.154 19.0085 21.8243C19.0085 21.3848 18.9206 21.2968 18.481 21.2968C16.6568 21.2968 14.8327 21.2968 13.0085 21.2968V21.3188Z" fill="black"/>
<path d="M16.0633 14.8131C16.1732 14.6812 16.283 14.5713 16.4149 14.4394C16.5688 14.2856 16.7666 14.2856 16.8984 14.4394C17.0303 14.5713 17.0303 14.7691 16.8765 14.923C16.5688 15.2526 16.2391 15.5603 15.9314 15.868C15.7556 16.0219 15.6017 16.0219 15.4259 15.868C15.0962 15.5603 14.7666 15.2306 14.4589 14.901C14.305 14.7471 14.327 14.5493 14.4589 14.4175C14.5907 14.2856 14.7885 14.2856 14.9424 14.4175C15.0743 14.5273 15.1841 14.6812 15.294 14.8131C15.294 14.8131 15.338 14.7911 15.338 14.7691C15.338 14.7252 15.338 14.6592 15.338 14.6153C15.338 13.9999 15.338 13.3845 15.338 12.7691C15.338 12.7032 15.338 12.6153 15.338 12.5493C15.3819 12.3955 15.4918 12.3076 15.6457 12.2856C15.7995 12.2856 15.9094 12.3515 15.9534 12.5054C15.9754 12.5933 15.9754 12.6812 15.9754 12.7471C15.9754 13.3625 15.9754 13.9559 15.9754 14.5713C15.9754 14.6372 15.9754 14.7032 15.9754 14.7691C15.9754 14.7691 15.9973 14.7691 16.0193 14.7691L16.0633 14.8131Z" fill="black"/>
<path d="M10.6784 13.5386C10.6784 14.1979 10.6784 14.8353 10.6784 15.4946C10.6784 15.5825 10.6784 15.6485 10.6784 15.7364C10.6564 15.9122 10.5466 16.0001 10.3707 16.0221C10.2169 16.0221 10.085 15.9561 10.0411 15.8023C10.0191 15.7144 10.0191 15.6265 10.0191 15.5605C10.0191 14.9012 10.0191 14.2419 10.0191 13.5166C9.88721 13.6484 9.75534 13.7583 9.64545 13.8682C9.44765 14.0441 9.24984 14.066 9.11798 13.9122C8.98611 13.7583 9.00808 13.5825 9.18391 13.4067C9.46962 13.121 9.77732 12.8133 10.063 12.5276C10.2828 12.3298 10.4367 12.3298 10.6564 12.5276C10.9422 12.8133 11.2499 13.121 11.5356 13.4067C11.7114 13.5825 11.7334 13.7803 11.5795 13.9122C11.4257 14.066 11.2279 14.0441 11.052 13.8682C10.9422 13.7583 10.8542 13.6484 10.7444 13.5166C10.7444 13.5166 10.7004 13.5386 10.6784 13.5605V13.5386Z" fill="black"/>
<path d="M11.1181 26.0001C10.1071 26.0001 9.09607 26.0001 8.08508 26.0001C8.01915 26.0001 7.95321 26.0001 7.88728 26.0001C7.71145 26.0221 7.62354 26.132 7.60156 26.3078C7.60156 26.4837 7.6675 26.5935 7.84332 26.6375C7.90926 26.6375 7.97519 26.6595 8.0631 26.6595C10.0851 26.6595 12.1071 26.6595 14.1291 26.6595C14.217 26.6595 14.2829 26.6595 14.3708 26.6375C14.5247 26.5935 14.6126 26.4617 14.5906 26.3078C14.5906 26.154 14.4807 26.0221 14.3049 26.0001C14.2389 26.0001 14.173 26.0001 14.0851 26.0001C13.0961 26.0001 12.0851 26.0001 11.0961 26.0001H11.1181ZM17.0961 26.3298C17.0961 26.6815 17.3818 26.9672 17.7335 26.9892C18.0851 26.9892 18.3708 26.7034 18.3928 26.3518C18.3928 26.0001 18.1071 25.7144 17.7554 25.6924C17.4038 25.6924 17.1181 25.9782 17.0961 26.3298ZM15.8653 26.0001C15.7115 26.0001 15.5576 26.0001 15.4258 26.0001C15.2499 26.0001 15.1181 26.132 15.0961 26.3078C15.0961 26.4837 15.206 26.6375 15.3818 26.6595C15.6895 26.6595 16.0192 26.6595 16.3269 26.6595C16.5247 26.6595 16.6346 26.4837 16.6126 26.3078C16.6126 26.132 16.4807 26.0221 16.2829 26.0001C16.1291 26.0001 15.9752 26.0001 15.8433 26.0001H15.8653Z" fill="white"/>
<path d="M11.0518 18.6595C10.0408 18.6595 9.00784 18.6595 7.99685 18.6595C7.88696 18.6595 7.75509 18.6375 7.66718 18.5716C7.46938 18.4177 7.53531 18.11 7.77707 18.0221C7.86498 18.0002 7.9529 18.0002 8.01883 18.0002C10.0408 18.0002 12.0408 18.0002 14.0628 18.0002C14.1068 18.0002 14.1507 18.0002 14.1947 18.0002C14.4145 18.0002 14.5463 18.154 14.5463 18.3518C14.5463 18.5276 14.4145 18.6595 14.1947 18.6595C13.7331 18.6595 13.2936 18.6595 12.832 18.6595C12.2386 18.6595 11.6672 18.6595 11.0738 18.6595H11.0518Z" fill="black"/>
<path d="M17.6672 17.7144C18.0188 17.7144 18.3045 18.0001 18.3045 18.3738C18.3045 18.7254 17.9968 19.0111 17.6452 19.0111C17.2935 19.0111 17.0078 18.7034 17.0078 18.3518C17.0078 18.0001 17.3155 17.7144 17.6672 17.7144Z" fill="black"/>
<path d="M15.6672 18.6595C15.5353 18.6595 15.3815 18.6595 15.2496 18.6595C15.0518 18.6595 14.9199 18.5276 14.9199 18.3518C14.9199 18.176 15.0298 18.0221 15.2496 18.0002C15.5573 18.0002 15.843 18.0002 16.1507 18.0002C16.3485 18.0002 16.4804 18.154 16.4804 18.3518C16.4804 18.5276 16.3485 18.6595 16.1507 18.6595C15.9968 18.6595 15.843 18.6595 15.7111 18.6595H15.6672Z" fill="black"/>
<path d="M11.1176 26C12.1066 26 13.1176 26 14.1066 26C14.1725 26 14.2604 26 14.3264 26C14.5022 26.0219 14.5901 26.1318 14.6121 26.3077C14.6121 26.4615 14.5461 26.5934 14.3923 26.6373C14.3264 26.6373 14.2385 26.6593 14.1505 26.6593C12.1286 26.6593 10.1066 26.6593 8.08459 26.6593C8.01865 26.6593 7.93074 26.6593 7.86481 26.6373C7.71096 26.5934 7.62305 26.4835 7.62305 26.3077C7.62305 26.1318 7.73294 26.0439 7.90876 26C7.9747 26 8.04063 26 8.10657 26C9.11756 26 10.1285 26 11.1395 26H11.1176Z" fill="black"/>
<path d="M17.1172 26.3078C17.1172 25.9562 17.4029 25.6705 17.7765 25.6705C18.1282 25.6705 18.4139 25.9562 18.4139 26.3298C18.4139 26.6815 18.1062 26.9672 17.7546 26.9672C17.4029 26.9672 17.1172 26.6595 17.1172 26.3078Z" fill="black"/>
<path d="M15.8867 26C16.0406 26 16.1944 26 16.3263 26C16.5021 26 16.634 26.1318 16.656 26.3077C16.656 26.4835 16.5461 26.6373 16.3703 26.6593C16.0626 26.6593 15.7329 26.6593 15.4252 26.6593C15.2274 26.6593 15.1175 26.4835 15.1395 26.3077C15.1395 26.1318 15.2714 26.0219 15.4692 26C15.623 26 15.7769 26 15.9087 26H15.8867Z" fill="black"/>
<path d="M11.0956 22.6594C10.1066 22.6594 9.13954 22.6594 8.15052 22.6594C8.08459 22.6594 8.01865 22.6594 7.95272 22.6594C7.73294 22.6594 7.62305 22.5056 7.62305 22.3297C7.62305 22.1539 7.75492 22.022 7.95272 22.0001C8.01865 22.0001 8.06261 22.0001 8.12854 22.0001C10.1066 22.0001 12.1066 22.0001 14.0846 22.0001C14.1725 22.0001 14.2604 22.0001 14.3264 22.0001C14.5022 22.022 14.5901 22.1539 14.5901 22.3078C14.5901 22.4616 14.5022 22.5935 14.3264 22.6154C14.2385 22.6154 14.1505 22.6154 14.0846 22.6154C13.0956 22.6154 12.0846 22.6154 11.0956 22.6154V22.6594Z" fill="black"/>
<path d="M17.7338 22.967C17.3821 22.967 17.0964 22.6593 17.1184 22.3076C17.1184 21.956 17.4261 21.6923 17.7777 21.6923C18.1294 21.6923 18.4151 22 18.4151 22.3516C18.4151 22.7033 18.1074 22.989 17.7557 22.967H17.7338Z" fill="black"/>
<path d="M15.8864 22.6594C15.7325 22.6594 15.5787 22.6594 15.4248 22.6594C15.249 22.6594 15.1171 22.5056 15.1391 22.3297C15.1391 22.1539 15.249 22.022 15.4248 22.022C15.7545 22.022 16.0622 22.022 16.3919 22.022C16.5677 22.022 16.6996 22.1759 16.6776 22.3517C16.6776 22.5275 16.5677 22.6374 16.3919 22.6594C16.238 22.6594 16.0622 22.6594 15.9083 22.6594H15.8864Z" fill="black"/>
<path d="M0.0898438 17.8562C0.0898438 12.7417 0.0898438 7.64506 0.0898438 2.5306C0.0898438 1.49702 0.481893 0.712918 1.4442 0.285228C1.72932 0.160485 2.06791 0.0892029 2.38868 0.0892029C7.78827 0.0892029 13.1879 0.0892029 18.5874 0.0892029C18.8191 0.0892029 19.1042 0.213946 19.2646 0.37433C21.4031 2.49496 23.5237 4.61559 25.6622 6.73622C25.9116 6.96789 25.9473 7.25301 25.9473 7.55596C25.9473 14.3099 25.9473 21.0817 25.9473 27.8356C25.9473 29.5998 25.9473 31.3641 25.9473 33.1105C25.9473 34.6787 25.0384 35.5875 23.4702 35.5875C16.5203 35.5875 9.55249 35.5875 2.60252 35.5875C1.03433 35.5875 0.125485 34.6787 0.125485 33.1105C0.125485 28.0138 0.125485 22.9172 0.125485 17.8205L0.0898438 17.8562ZM18.1954 1.19407C18.0172 1.19407 17.9103 1.19407 17.8033 1.19407C12.7245 1.19407 7.64571 1.19407 2.54906 1.19407C1.6224 1.19407 1.19471 1.62176 1.19471 2.5306C1.19471 12.7239 1.19471 22.935 1.19471 33.1283C1.19471 34.0549 1.6224 34.4826 2.53124 34.4826C9.49903 34.4826 16.4668 34.4826 23.4346 34.4826C24.3969 34.4826 24.789 34.0728 24.789 33.1283C24.789 24.824 24.789 16.5196 24.789 8.23314V7.82327C24.6108 7.82327 24.486 7.82327 24.3613 7.82327C23.096 7.82327 21.8129 7.82327 20.5477 7.82327C19.0864 7.82327 18.1598 6.87879 18.1598 5.43533C18.1598 4.86508 18.1598 4.29482 18.1598 3.72457C18.1598 2.90483 18.1598 2.06727 18.1598 1.21189L18.1954 1.19407ZM23.8445 6.70058C22.3297 5.18585 20.7972 3.67111 19.3181 2.17419C19.3181 3.26124 19.3181 4.43739 19.3181 5.61354C19.3181 6.20161 19.7814 6.68276 20.3873 6.68276C21.5635 6.70058 22.7396 6.68276 23.8445 6.68276V6.70058Z" fill="black"/>
<path d="M23.4339 35.6943H2.56614C0.962303 35.6943 0 34.732 0 33.1282C0 28.0315 0 22.9349 0 17.8382V13.4544C0 9.81906 0 6.18369 0 2.5305C0 1.40781 0.463331 0.623715 1.40781 0.213845C1.69294 0.0891021 2.04935 0 2.38794 0C8.07265 0 13.3653 0 18.5867 0C18.8362 0 19.1391 0.124743 19.3173 0.302947C20.6539 1.62166 22.0082 2.97601 23.3091 4.2769C24.111 5.07882 24.913 5.86292 25.6971 6.66484C25.9465 6.91433 26 7.19945 26 7.55586C26 12.6347 26 17.6957 26 22.7745V27.8533C26 29.6176 26 31.3818 26 33.1282C26 34.732 25.0377 35.6943 23.4339 35.6943ZM9.9438 0.178204C7.48458 0.178204 4.9719 0.178204 2.38794 0.178204C2.06717 0.178204 1.7464 0.249486 1.4791 0.356409C0.605895 0.766278 0.178204 1.46127 0.178204 2.5305C0.178204 6.18369 0.178204 9.81906 0.178204 13.4722V17.8561C0.178204 22.9527 0.178204 28.0494 0.178204 33.146C0.178204 34.6607 1.05141 35.5339 2.56614 35.5339H23.4339C24.9486 35.5339 25.8218 34.6607 25.8218 33.146C25.8218 31.3818 25.8218 29.6176 25.8218 27.8712V22.7923C25.8218 17.7135 25.8218 12.6525 25.8218 7.57368C25.8218 7.25291 25.7862 7.02125 25.5723 6.8074C24.7704 6.00548 23.9685 5.22139 23.1844 4.41947C21.8835 3.11858 20.5291 1.76422 19.1926 0.445511C19.05 0.302947 18.7827 0.196025 18.5867 0.196025C15.7533 0.196025 12.902 0.196025 9.96162 0.196025L9.9438 0.178204ZM23.4517 34.5895H2.54832C1.5682 34.5895 1.12269 34.1261 1.12269 33.146V2.54832C1.12269 1.5682 1.58602 1.12269 2.56614 1.12269H18.3016V5.45305C18.3016 6.86087 19.1926 7.75189 20.6004 7.75189C21.4736 7.75189 22.3468 7.75189 23.22 7.75189H24.9308V33.146C24.9308 34.1439 24.4853 34.5895 23.4695 34.5895H23.4517ZM2.54832 1.28307C1.6573 1.28307 1.28307 1.6573 1.28307 2.5305V33.1282C1.28307 34.0192 1.6573 34.3934 2.5305 34.3934H23.4339C24.3427 34.3934 24.7169 34.0192 24.7169 33.1282V7.91227H23.1844C22.3112 7.91227 21.438 7.91227 20.5648 7.91227C19.0679 7.91227 18.0877 6.93215 18.0877 5.43523C18.0877 5.061 18.0877 4.66895 18.0877 4.29472V1.28307H2.54832ZM21.8657 6.78958C21.3845 6.78958 20.8855 6.78958 20.3866 6.78958C19.7272 6.78958 19.2282 6.27279 19.2282 5.63126C19.2282 4.7937 19.2282 3.93831 19.2282 3.11858C19.2282 2.79781 19.2282 2.47704 19.2282 2.17409V1.96025L20.4757 3.20768C21.6162 4.34818 22.7745 5.50651 23.915 6.64702L24.0754 6.78958H23.8616C23.22 6.78958 22.5607 6.78958 21.8835 6.78958H21.8657ZM19.4064 2.38794C19.4064 2.6196 19.4064 2.86909 19.4064 3.11858C19.4064 3.93831 19.4064 4.77588 19.4064 5.63126C19.4064 6.18369 19.8341 6.61138 20.3866 6.61138C21.2241 6.61138 22.0617 6.61138 22.8814 6.61138C23.1309 6.61138 23.3804 6.61138 23.6299 6.61138C22.5428 5.52433 21.438 4.41947 20.3331 3.3146L19.3886 2.37012L19.4064 2.38794Z" fill="black"/>
</svg>
