<svg width="19" height="19" viewBox="0 0 19 19" fill="none" xmlns="http://www.w3.org/2000/svg">
<g id="simple-icons:codereview" clip-path="url(#clip0_10650_11384)">
<path id="Vector" d="M16.8074 15.1L16.6725 15.2741L16.8282 15.4298L18.4606 17.0622C18.6457 17.2473 18.75 17.4988 18.75 17.761C18.75 18.303 18.303 18.75 17.761 18.75C17.4988 18.75 17.2473 18.6457 17.0622 18.4606L15.4298 16.8282L15.2741 16.6725L15.1 16.8074C13.4939 18.0513 11.5203 18.7268 9.48879 18.7278C4.42171 18.7278 0.25 14.556 0.25 9.48892C0.25 4.42178 4.42178 0.25 9.48892 0.25C14.556 0.25 18.7278 4.42171 18.7278 9.48879C18.7268 11.5203 18.0513 13.4939 16.8074 15.1ZM14.8797 14.4489L14.9197 14.4282L14.95 14.3948C16.1665 13.0503 16.8412 11.3024 16.8433 9.48922V9.48892C16.8433 5.45347 13.5244 2.1345 9.48892 2.1345C7.27306 2.1345 5.2744 3.13515 3.92257 4.70313L3.5663 5.11637H4.11192H8.02213V6.56229H2.91412H2.74688L2.68305 6.71688C2.48216 7.20342 2.3348 7.71038 2.24357 8.2288L2.19196 8.52213H2.48979H7.04917V9.96883H2.4225H2.14544L2.17381 10.2444C2.24518 10.9376 2.41742 11.6166 2.68299 12.2608L2.74677 12.4155H2.91412H6.07621V13.8615H4.11192H3.5663L3.92257 14.2747C5.2744 15.8427 7.27306 16.8433 9.48892 16.8433C11.3668 16.8433 13.0897 16.124 14.3942 14.9504L14.428 14.9201L14.4489 14.8797C14.5447 14.6952 14.6952 14.5447 14.8797 14.4489ZM12.8885 13.8615H7.54917V12.4155H12.8885V13.8615ZM15.8082 9.96883H12.4155V8.52213H15.8082V9.96883ZM10.4557 9.96883H8.52213V8.52213H10.4557V9.96883ZM13.3754 6.56229H9.98196V5.11637H13.3754V6.56229Z" fill="#1C5D95" stroke="white" stroke-width="0.5"/>
</g>
<defs>
<clipPath id="clip0_10650_11384">
<rect width="19" height="19" fill="white"/>
</clipPath>
</defs>
</svg>
