<svg width="6" height="18" viewBox="0 0 6 18" fill="none" xmlns="http://www.w3.org/2000/svg">
<path id="Vector" d="M-4.37114e-08 1C-1.95703e-08 0.447715 0.447715 -2.42698e-07 1 -2.18557e-07C1.55228 -1.94416e-07 2 0.447715 2 1C2 1.55228 1.55228 2 1 2C0.447715 2 -6.78525e-08 1.55228 -4.37114e-08 1ZM4 1C4 0.447715 4.44772 -6.78525e-08 5 -4.37114e-08C5.55228 -1.95703e-08 6 0.447715 6 1C6 1.55228 5.55228 2 5 2C4.44772 2 4 1.55228 4 1ZM-2.18557e-07 5C-1.94416e-07 4.44772 0.447715 4 1 4C1.55228 4 2 4.44772 2 5C2 5.55228 1.55228 6 1 6C0.447715 6 -2.42698e-07 5.55228 -2.18557e-07 5ZM4 5C4 4.44772 4.44772 4 5 4C5.55228 4 6 4.44772 6 5C6 5.55228 5.55228 6 5 6C4.44772 6 4 5.55228 4 5ZM-3.93402e-07 9C-3.69261e-07 8.44771 0.447715 8 1 8C1.55228 8 2 8.44771 2 9C2 9.55229 1.55228 10 1 10C0.447715 10 -4.17544e-07 9.55228 -3.93402e-07 9ZM4 9C4 8.44771 4.44771 8 5 8C5.55228 8 6 8.44771 6 9C6 9.55229 5.55228 10 5 10C4.44771 10 4 9.55229 4 9ZM-5.68248e-07 13C-5.44107e-07 12.4477 0.447715 12 0.999999 12C1.55228 12 2 12.4477 2 13C2 13.5523 1.55228 14 0.999999 14C0.447715 14 -5.92389e-07 13.5523 -5.68248e-07 13ZM4 13C4 12.4477 4.44771 12 5 12C5.55228 12 6 12.4477 6 13C6 13.5523 5.55228 14 5 14C4.44771 14 4 13.5523 4 13ZM-7.43094e-07 17C-7.18952e-07 16.4477 0.447715 16 0.999999 16C1.55228 16 2 16.4477 2 17C2 17.5523 1.55228 18 0.999999 18C0.447714 18 -7.67235e-07 17.5523 -7.43094e-07 17ZM4 17C4 16.4477 4.44771 16 5 16C5.55228 16 6 16.4477 6 17C6 17.5523 5.55228 18 5 18C4.44771 18 4 17.5523 4 17Z" fill="#808080"/>
</svg>
