<svg width="24" height="24" viewBox="0 0 24 24" fill="none" xmlns="http://www.w3.org/2000/svg">
<g id="mdi:drag-horizontal">
<path id="Vector" d="M13 4C13 3.44771 13.4477 3 14 3C14.5523 3 15 3.44772 15 4C15 4.55228 14.5523 5 14 5C13.4477 5 13 4.55228 13 4ZM17 4C17 3.44772 17.4477 3 18 3C18.5523 3 19 3.44772 19 4C19 4.55228 18.5523 5 18 5C17.4477 5 17 4.55228 17 4ZM13 8C13 7.44772 13.4477 7 14 7C14.5523 7 15 7.44772 15 8C15 8.55228 14.5523 9 14 9C13.4477 9 13 8.55228 13 8ZM17 8C17 7.44772 17.4477 7 18 7C18.5523 7 19 7.44772 19 8C19 8.55228 18.5523 9 18 9C17.4477 9 17 8.55228 17 8ZM13 12C13 11.4477 13.4477 11 14 11C14.5523 11 15 11.4477 15 12C15 12.5523 14.5523 13 14 13C13.4477 13 13 12.5523 13 12ZM17 12C17 11.4477 17.4477 11 18 11C18.5523 11 19 11.4477 19 12C19 12.5523 18.5523 13 18 13C17.4477 13 17 12.5523 17 12ZM13 16C13 15.4477 13.4477 15 14 15C14.5523 15 15 15.4477 15 16C15 16.5523 14.5523 17 14 17C13.4477 17 13 16.5523 13 16ZM17 16C17 15.4477 17.4477 15 18 15C18.5523 15 19 15.4477 19 16C19 16.5523 18.5523 17 18 17C17.4477 17 17 16.5523 17 16ZM13 20C13 19.4477 13.4477 19 14 19C14.5523 19 15 19.4477 15 20C15 20.5523 14.5523 21 14 21C13.4477 21 13 20.5523 13 20ZM17 20C17 19.4477 17.4477 19 18 19C18.5523 19 19 19.4477 19 20C19 20.5523 18.5523 21 18 21C17.4477 21 17 20.5523 17 20Z" fill="#F3F8FD"/>
</g>
</svg>
