<svg width="27" height="36" viewBox="0 0 27 36" fill="none" xmlns="http://www.w3.org/2000/svg">
<g id="Layer_1" clip-path="url(#clip0_1391_8309)">
<g id="Group">
<path id="Vector" d="M5.12305 18.5841C5.16003 18.4583 5.17853 18.3505 5.21551 18.2247C5.5114 17.2541 6.41757 16.5532 7.47168 16.5532C10.4676 16.5532 13.4819 16.5532 16.4778 16.5532C17.7539 16.5532 18.7895 17.5776 18.8265 18.8357C18.8265 19.0334 18.8265 19.2311 18.8265 19.4648C18.9004 19.4288 18.9559 19.3929 19.0114 19.3749C19.8436 18.9076 20.6943 18.4224 21.5265 17.9551C21.9518 17.7214 22.4326 17.7933 22.747 18.1348C22.9135 18.3325 22.9874 18.5482 22.9874 18.7998C22.9874 20.3455 22.9874 21.8912 22.9874 23.4189C22.9874 24.0839 22.9874 24.7489 22.9874 25.3959C22.9874 26.2047 22.2292 26.636 21.508 26.2406C20.6758 25.7733 19.8436 25.306 19.0114 24.8387C18.9559 24.8028 18.9189 24.7848 18.8265 24.7489C18.8265 24.9645 18.8265 25.1443 18.8265 25.324C18.8265 26.4563 18.0313 27.3729 16.9032 27.6066C16.7367 27.6425 16.5518 27.6605 16.3669 27.6605C13.445 27.6605 10.523 27.6605 7.60113 27.6605C6.3436 27.6605 5.40044 26.8877 5.16003 25.6835C5.16003 25.6655 5.14154 25.6475 5.12305 25.6295C5.12305 23.2751 5.12305 20.9386 5.12305 18.5841ZM11.9655 26.5821C13.4265 26.5821 14.8874 26.5821 16.3484 26.5821C17.1806 26.5821 17.7169 26.0609 17.7169 25.2521C17.7169 23.1493 17.7169 21.0644 17.7169 18.9615C17.7169 18.1528 17.1806 17.6315 16.3484 17.6315C13.445 17.6315 10.523 17.6315 7.61962 17.6315C6.78743 17.6315 6.25113 18.1528 6.25113 18.9615C6.25113 21.0464 6.25113 23.1313 6.25113 25.2162C6.25113 26.0609 6.76894 26.5641 7.63812 26.5641C9.08058 26.5641 10.523 26.5641 11.984 26.5641L11.9655 26.5821ZM21.8409 19.0334C21.8409 19.0334 21.7669 19.0694 21.7299 19.0874C20.7867 19.6086 19.8436 20.1478 18.9004 20.669C18.808 20.7229 18.7895 20.7768 18.7895 20.8667C18.7895 21.6935 18.7895 22.5202 18.7895 23.347C18.7895 23.4728 18.8265 23.5447 18.9374 23.5986C19.8436 24.1018 20.7498 24.6231 21.6744 25.1263C21.7299 25.1443 21.7669 25.1802 21.8224 25.1982V19.0334H21.8409Z" fill="black"/>
<path id="Vector_2" d="M11.4101 21.5676C11.4101 21.0285 11.4101 20.5252 11.4101 20.004C11.4101 19.9321 11.4101 19.8422 11.4101 19.7703C11.4471 19.4828 11.6875 19.2851 11.9834 19.2851C12.2793 19.2851 12.5012 19.5187 12.5197 19.8063C12.5197 20.3275 12.5197 20.8487 12.5197 21.3699C12.5197 21.4239 12.5197 21.4778 12.5197 21.5497C12.5937 21.5497 12.6491 21.5497 12.7231 21.5497C13.2409 21.5497 13.7402 21.5497 14.258 21.5497C14.6094 21.5497 14.8683 21.7653 14.8683 22.0889C14.8683 22.4124 14.6094 22.646 14.258 22.646C13.6847 22.646 13.13 22.646 12.5197 22.646C12.5197 22.7179 12.5197 22.7718 12.5197 22.8437C12.5197 23.3649 12.5197 23.8862 12.5197 24.4074C12.5197 24.677 12.3163 24.8927 12.0574 24.9286C11.7984 24.9645 11.5395 24.8387 11.4471 24.6051C11.4101 24.5152 11.4101 24.4074 11.3916 24.2995C11.3916 23.8143 11.3916 23.347 11.3916 22.8617C11.3916 22.8078 11.3916 22.7359 11.3916 22.664C11.3176 22.664 11.2437 22.664 11.1882 22.664C10.6704 22.664 10.1711 22.664 9.65324 22.664C9.30187 22.664 9.04297 22.4303 9.04297 22.1248C9.04297 21.8193 9.30187 21.5856 9.65324 21.5856C10.2265 21.5856 10.7813 21.5856 11.3916 21.5856L11.4101 21.5676Z" fill="black"/>
</g>
<g id="Group_2">
<path id="Vector_3" d="M0.0917969 18.009C0.0917969 12.8507 0.0917969 7.71044 0.0917969 2.55218C0.0917969 1.50974 0.498646 0.718931 1.49728 0.287578C1.79317 0.161766 2.14454 0.0898743 2.47741 0.0898743C8.08084 0.0898743 13.6843 0.0898743 19.2877 0.0898743C19.5281 0.0898743 19.824 0.215686 19.9904 0.377443C22.2096 2.51623 24.4103 4.65503 26.6295 6.79382C26.8884 7.02747 26.9254 7.31504 26.9254 7.62058C26.9254 14.4324 26.9254 21.2621 26.9254 28.0739C26.9254 29.8532 26.9254 31.6326 26.9254 33.3939C26.9254 34.9755 25.9822 35.8922 24.3548 35.8922C17.1425 35.8922 9.91166 35.8922 2.69933 35.8922C1.07193 35.8922 0.128783 34.9755 0.128783 33.3939C0.128783 28.2536 0.128783 23.1133 0.128783 17.973L0.0917969 18.009ZM18.8808 1.2042C18.6959 1.2042 18.5849 1.2042 18.474 1.2042C13.2034 1.2042 7.93289 1.2042 2.64385 1.2042C1.68221 1.2042 1.23837 1.63556 1.23837 2.55218C1.23837 12.8328 1.23837 23.1313 1.23837 33.4119C1.23837 34.3465 1.68221 34.7778 2.62536 34.7778C9.85618 34.7778 17.087 34.7778 24.3178 34.7778C25.3165 34.7778 25.7233 34.3645 25.7233 33.4119C25.7233 25.0365 25.7233 16.661 25.7233 8.30355V7.89017C25.5384 7.89017 25.4089 7.89017 25.2795 7.89017C23.9665 7.89017 22.6349 7.89017 21.3219 7.89017C19.8055 7.89017 18.8439 6.9376 18.8439 5.48179C18.8439 4.90665 18.8439 4.33151 18.8439 3.75637C18.8439 2.92961 18.8439 2.08488 18.8439 1.22218L18.8808 1.2042ZM24.7432 6.75787C23.1712 5.23016 21.5808 3.70246 20.0459 2.19272C20.0459 3.28908 20.0459 4.4753 20.0459 5.66152C20.0459 6.25463 20.5267 6.7399 21.1555 6.7399C22.376 6.75787 23.5966 6.7399 24.7432 6.7399V6.75787Z" fill="black"/>
<path id="Vector_4" d="M24.3185 36H2.66301C0.99863 36 0 35.0295 0 33.4119C0 28.2716 0 23.1313 0 17.991V13.5696C0 9.90315 0 6.23664 0 2.55217C0 1.41987 0.480822 0.629056 1.46096 0.215676C1.75685 0.0898652 2.12671 0 2.47808 0C8.3774 0 13.8699 0 19.2884 0C19.5473 0 19.8616 0.125811 20.0466 0.305542C21.4336 1.63555 22.839 3.0015 24.189 4.31353C25.0212 5.12232 25.8534 5.91313 26.6671 6.72192C26.926 6.97354 26.9815 7.26111 26.9815 7.62057C26.9815 12.7429 26.9815 17.8472 26.9815 22.9695V28.0919C26.9815 29.8712 26.9815 31.6505 26.9815 33.4119C26.9815 35.0295 25.9829 36 24.3185 36ZM10.3192 0.17973C7.76712 0.17973 5.15959 0.17973 2.47808 0.17973C2.14521 0.17973 1.81233 0.251623 1.53493 0.359461C0.628767 0.772841 0.184932 1.47379 0.184932 2.55217C0.184932 6.23664 0.184932 9.90314 0.184932 13.5876V18.009C0.184932 23.1493 0.184932 28.2896 0.184932 33.4299C0.184932 34.9576 1.0911 35.8382 2.66301 35.8382H24.3185C25.8904 35.8382 26.7966 34.9576 26.7966 33.4299C26.7966 31.6505 26.7966 29.8712 26.7966 28.1098V22.9875C26.7966 17.8652 26.7966 12.7609 26.7966 7.63854C26.7966 7.31503 26.7596 7.08138 26.5377 6.8657C25.7055 6.05691 24.8733 5.2661 24.0596 4.45731C22.7096 3.14528 21.3041 1.77933 19.9171 0.449326C19.7692 0.305542 19.4918 0.197703 19.2884 0.197703C16.3479 0.197703 13.389 0.197703 10.3377 0.197703L10.3192 0.17973ZM24.337 34.8857H2.64452C1.6274 34.8857 1.16507 34.4184 1.16507 33.4299V2.57014C1.16507 1.58163 1.64589 1.1323 2.66301 1.1323H18.9925V5.49975C18.9925 6.91962 19.9171 7.81827 21.3781 7.81827C22.2842 7.81827 23.1904 7.81827 24.0966 7.81827H25.8719V33.4299C25.8719 34.4363 25.4096 34.8857 24.3555 34.8857H24.337ZM2.64452 1.29406C1.71986 1.29406 1.33151 1.67149 1.33151 2.55217V33.4119C1.33151 34.3105 1.71986 34.688 2.62603 34.688H24.3185C25.2616 34.688 25.65 34.3105 25.65 33.4119V7.98003H24.0596C23.1534 7.98003 22.2473 7.98003 21.3411 7.98003C19.7877 7.98003 18.7705 6.99151 18.7705 5.48178C18.7705 5.10434 18.7705 4.70894 18.7705 4.3315V1.29406H2.64452ZM22.6911 6.84773C22.1918 6.84773 21.674 6.84773 21.1562 6.84773C20.4719 6.84773 19.9541 6.32651 19.9541 5.67948C19.9541 4.83475 19.9541 3.97204 19.9541 3.14528C19.9541 2.82177 19.9541 2.49825 19.9541 2.19271V1.97703L21.2486 3.23515C22.4322 4.38542 23.6342 5.55367 24.8178 6.70394L24.9842 6.84773H24.7623C24.0966 6.84773 23.4123 6.84773 22.7096 6.84773H22.6911ZM20.139 2.40839C20.139 2.64204 20.139 2.89366 20.139 3.14528C20.139 3.97204 20.139 4.81677 20.139 5.67948C20.139 6.23665 20.5829 6.668 21.1562 6.668C22.0253 6.668 22.8945 6.668 23.7452 6.668C24.0041 6.668 24.263 6.668 24.5219 6.668C23.3938 5.57164 22.2473 4.45731 21.1007 3.34299L20.1205 2.39041L20.139 2.40839Z" fill="black"/>
</g>
</g>
<defs>
<clipPath id="clip0_1391_8309">
<rect width="27" height="36" fill="white"/>
</clipPath>
</defs>
</svg>
